<svg width="512" height="512" viewBox="0 0 512 512" fill="none" xmlns="http://www.w3.org/2000/svg">
<rect width="512" height="512" fill="#0F3A2A"/>
<path d="M40.0872 206.336C40.7678 199.035 41.108 189.6 41.108 178.031C41.108 164.556 40.2622 149.842 38.5706 133.888C57.6647 134.559 90.1266 134.894 135.956 134.894C181.446 134.894 213.738 134.559 232.832 133.888C231.257 150.289 230.469 165.003 230.469 178.031C230.469 189.6 230.805 199.035 231.476 206.336H223.557C221.758 188.477 219.483 175.25 216.732 166.656C213.981 158.062 209.154 151.771 202.251 147.785C195.339 143.799 184.751 141.806 170.489 141.806H151.794V338.08C151.794 347.627 152.693 354.617 154.492 359.051C156.28 363.494 159.537 366.556 164.262 368.238C168.977 369.92 176.444 370.931 186.662 371.271V378.184C174.529 377.503 157.627 377.163 135.956 377.163C112.925 377.163 95.9064 377.503 84.901 378.184V371.271C95.1286 370.931 102.6 369.92 107.315 368.238C112.03 366.556 115.287 363.494 117.086 359.051C118.884 354.617 119.784 347.627 119.784 338.08V141.806H101.074C86.8114 141.806 76.229 143.799 69.3263 147.785C62.4139 151.771 57.5821 158.062 54.8307 166.656C52.0794 175.25 49.8044 188.477 48.0058 206.336H40.0872Z" fill="white"/>
<path d="M257.419 133.888C269.775 134.675 281.009 135.069 291.12 135.069L299.535 134.894C331.209 134.223 348.563 133.888 351.596 133.888C392.254 133.888 422.723 144.052 443.003 164.381C463.274 184.71 473.409 214.362 473.409 253.338C473.409 278.382 468.494 300.31 458.665 319.122C448.836 337.934 434.545 352.478 415.791 362.755C397.037 373.041 374.628 378.184 348.563 378.184C345.423 378.184 337.927 378.013 326.076 377.673C314.225 377.333 305.606 377.163 300.22 377.163C281.35 377.163 267.082 377.503 257.419 378.184V371.271C265.731 370.931 271.768 370.032 275.531 368.573C279.293 367.115 281.879 364.422 283.289 360.494C284.689 356.557 285.389 350.267 285.389 341.624V170.447C285.389 161.795 284.689 155.505 283.289 151.577C281.879 147.649 279.293 144.956 275.531 143.498C271.768 142.03 265.731 141.131 257.419 140.8V133.888ZM317.399 342.295C317.399 350.607 318.075 356.81 319.426 360.903C320.768 365.005 323.266 367.873 326.922 369.507C330.567 371.13 336.041 371.942 343.342 371.942C367.832 371.942 387.038 367.504 400.96 358.628C414.892 349.761 424.692 336.821 430.359 319.807C436.037 302.784 438.876 281.075 438.876 254.679C438.876 228.177 435.784 206.584 429.601 189.901C423.428 173.228 413.346 160.764 399.356 152.51C385.376 144.256 366.593 140.129 343.007 140.129C335.822 140.129 330.431 140.941 326.834 142.565C323.237 144.198 320.768 147.09 319.426 151.242C318.075 155.393 317.399 161.571 317.399 169.777V342.295Z" fill="white"/>
</svg>
