<?xml version="1.0" encoding="iso-8859-1"?><svg fill="#000000" height="800px" width="800px" version="1.1" id="Capa_1" xmlns="http://www.w3.org/2000/svg" xmlns:xlink="http://www.w3.org/1999/xlink" viewBox="0 0 480 480" xml:space="preserve"><path d="M472,300h-79.662c8.049-5.573,14.461-12.416,18.616-20.252c1.315-2.479,1.234-5.467-0.212-7.872 c-1.447-2.405-4.049-3.876-6.855-3.876H268.113c-2.807,0-5.408,1.471-6.855,3.876c-1.446,2.405-1.527,5.393-0.212,7.872 c4.156,7.836,10.567,14.679,18.616,20.252H240V132c0-4.418-3.582-8-8-8h-24c-4.418,0-8,3.582-8,8v80h-8v-80c0-4.418-3.582-8-8-8h-24 c-4.418,0-8,3.582-8,8v168h-14.429c-8.42-19.114-31.097-32-57.571-32c-26.248,0-49.093,12.938-57.551,32H8c-4.418,0-8,3.582-8,8 s3.582,8,8,8v32c0,4.418,3.582,8,8,8s8-3.582,8-8h48c0,4.418,3.582,8,8,8s8-3.582,8-8h48c0,4.418,3.582,8,8,8s8-3.582,8-8h48 c0,4.418,3.582,8,8,8s8-3.582,8-8h48c0,4.418,3.582,8,8,8s8-3.582,8-8h48c0,4.418,3.582,8,8,8s8-3.582,8-8h48c0,4.418,3.582,8,8,8 s8-3.582,8-8h48c0,4.418,3.582,8,8,8s8-3.582,8-8v-32c4.418,0,8-3.582,8-8S476.418,300,472,300z M285.007,284h101.986 c-11.906,9.896-30.593,16-50.993,16S296.913,293.896,285.007,284z M224,140v160h-8V140H224z M200,228v72h-8v-72H200z M168,140h8v160 h-8V140z M80,284c16.375,0,31.035,6.333,38.92,16H41.118C49.049,290.352,63.771,284,80,284z M24,332v-16h48v16H24z M88,332v-16 h43.911c0.008,0,0.016,0.002,0.024,0.002c0.01,0,0.02-0.002,0.03-0.002H136v16H88z M152,332v-16h48v16H152z M216,332v-16h48v16H216z M280,332v-16h48v16H280z M344,332v-16h48v16H344z M456,332h-48v-16h48V332z"/></svg>