<?xml version="1.0" standalone="no"?><!DOCTYPE svg PUBLIC "-//W3C//DTD SVG 20010904//EN" "http://www.w3.org/TR/2001/REC-SVG-20010904/DTD/svg10.dtd"><svg version="1.0" xmlns="http://www.w3.org/2000/svg" width="400.000000pt" height="400.000000pt" viewBox="0 0 400.000000 400.000000" preserveAspectRatio="xMidYMid meet"><g transform="translate(0.000000,400.000000) scale(0.100000,-0.100000)"
fill="#000000" stroke="none"><path d="M1955 3759 c-59 -47 -111 -75 -180 -99 l-50 -17 -3 -91 -3 -92 -71
-57 c-39 -32 -86 -63 -104 -69 -33 -11 -34 -11 -34 17 0 27 -3 29 -40 29 -40
0 -40 0 -40 40 0 35 4 42 45 70 30 21 52 29 65 25 11 -3 30 0 42 7 13 7 29 13
37 13 8 0 16 6 19 13 2 6 -3 12 -11 12 -8 0 -21 10 -29 22 -19 29 -62 18 -82
-21 -9 -16 -35 -40 -59 -55 -45 -25 -57 -47 -57 -98 0 -26 -3 -28 -45 -28
l-45 0 0 -45 0 -45 -40 0 -40 0 0 165 c0 212 17 197 -232 195 -225 -2 -208 -4
-208 20 0 11 -4 20 -10 20 -5 0 -10 -8 -10 -18 0 -17 -15 -19 -201 -25 -126
-4 -207 -11 -215 -18 -19 -16 -21 -698 -2 -717 9 -9 69 -12 210 -12 l198 0 0
-29 c0 -42 18 -48 22 -9 l3 33 213 5 c174 4 214 8 222 20 5 8 10 90 10 183 l0
167 39 0 c40 0 40 0 43 -42 3 -43 3 -43 46 -46 l42 -3 0 -130 c0 -116 -2 -129
-17 -129 -38 0 -85 -41 -106 -91 l-21 -49 -60 0 c-57 0 -62 2 -78 30 -14 24
-24 30 -52 30 -60 0 -88 -48 -61 -103 l16 -32 -63 -57 c-34 -31 -59 -60 -56
-64 4 -4 44 23 89 60 44 36 87 66 94 66 8 0 22 11 33 25 17 22 28 25 81 25 57
0 61 -2 75 -29 34 -65 112 -103 167 -82 20 7 30 6 42 -6 15 -15 12 -21 -37
-73 -29 -32 -60 -73 -69 -92 -9 -19 -25 -42 -35 -51 -18 -17 -23 -16 -100 30
-81 48 -82 48 -82 90 0 33 -5 46 -27 63 -52 41 -123 3 -123 -65 0 -56 61 -91
111 -64 16 8 35 1 105 -42 97 -58 93 -46 53 -178 -10 -35 -19 -87 -19 -117 0
-30 -6 -72 -12 -94 -12 -36 -16 -40 -46 -40 -20 0 -31 -4 -27 -10 3 -5 19 -10
35 -10 37 0 46 -17 53 -101 3 -36 15 -92 26 -125 37 -114 43 -102 -72 -171
-77 -46 -108 -60 -128 -57 -21 5 -31 -2 -60 -40 l-34 -45 -67 -1 c-60 0 -68 2
-68 18 0 21 -19 40 -65 66 -30 18 -32 17 -78 -10 -34 -21 -47 -35 -47 -51 0
-22 -4 -23 -67 -23 l-68 1 -34 44 c-37 50 -51 54 -98 25 -28 -17 -33 -26 -33
-57 0 -33 6 -42 39 -65 22 -16 43 -28 48 -28 5 0 22 13 38 30 27 28 34 30 102
30 70 0 73 -1 73 -24 0 -18 11 -31 44 -50 24 -14 47 -36 51 -48 l8 -23 4 25
c2 16 17 33 43 48 30 17 40 29 40 47 0 24 2 25 73 25 68 0 75 -2 102 -30 16
-17 33 -30 38 -30 5 0 27 12 48 28 39 26 40 28 36 77 l-3 51 87 52 c77 47 90
52 108 41 11 -7 22 -23 26 -36 3 -12 33 -52 67 -88 72 -77 69 -90 -22 -90 -81
0 -128 -38 -154 -127 -8 -28 -127 -25 -166 3 -19 14 -36 20 -51 16 -18 -5 -39
7 -97 55 -40 33 -76 57 -80 53 -4 -3 24 -34 61 -68 64 -58 68 -64 61 -94 -4
-23 -1 -40 10 -58 34 -51 126 -24 126 37 0 16 10 18 70 18 55 0 70 -3 70 -15
0 -27 60 -84 96 -91 l34 -6 0 -127 c0 -123 -1 -128 -25 -149 -53 -46 -22 -127
47 -121 79 7 112 -69 56 -128 -24 -25 -37 -31 -58 -27 -30 7 -60 -16 -60 -45
0 -25 36 -54 59 -48 30 8 82 -51 79 -90 -3 -42 18 -65 56 -61 22 2 35 11 44
30 6 14 26 31 43 37 28 10 34 7 70 -26 27 -25 36 -40 29 -47 -13 -13 -13 -26
0 -26 6 0 10 7 10 15 0 19 2 19 44 -6 39 -23 127 -49 167 -49 17 0 30 -8 37
-22 10 -23 11 -23 11 -2 1 19 9 22 60 28 35 4 84 19 118 36 68 35 63 34 63 15
0 -18 16 -20 26 -4 3 6 0 15 -7 20 -11 7 -6 16 22 44 34 35 36 35 68 22 18 -8
38 -25 45 -38 13 -27 59 -37 82 -18 8 6 14 27 14 46 0 43 46 106 72 97 40 -12
83 41 58 71 -7 8 -29 15 -49 15 -29 0 -44 7 -68 32 -26 28 -30 39 -26 71 6 45
31 62 85 58 71 -5 105 70 53 119 -24 23 -25 28 -25 152 l0 128 25 0 c30 0 93
54 101 86 6 23 10 24 84 24 74 0 78 -1 84 -24 9 -37 34 -56 70 -56 65 0 91 79
40 119 -33 26 -54 26 -87 1 -20 -16 -40 -20 -105 -20 l-79 0 -7 38 c-10 68
-86 117 -161 105 -21 -3 -41 -1 -50 7 -12 10 -8 20 34 69 27 31 61 75 75 99
15 24 33 45 41 48 7 3 55 -21 107 -53 l93 -58 2 -45 c1 -35 8 -50 28 -67 68
-59 152 14 119 102 -11 27 -62 45 -96 33 -25 -9 -39 -3 -131 54 -115 72 -113
68 -77 178 10 30 21 78 25 105 3 28 8 65 11 83 l5 32 79 0 78 0 7 -42 c4 -24
16 -63 27 -88 12 -29 17 -56 13 -76 -13 -71 34 -118 117 -116 33 1 65 -6 89
-19 66 -33 115 -34 202 -5 43 14 100 26 128 26 43 0 55 5 80 29 24 24 29 38
29 78 1 26 9 73 20 103 27 76 26 173 -2 247 -12 32 -20 75 -19 95 1 20 -3 46
-9 58 -16 30 -73 52 -114 45 -21 -4 -54 1 -97 16 -78 26 -128 27 -194 3 -28
-10 -78 -18 -113 -19 -59 0 -66 -2 -94 -34 -25 -28 -29 -38 -23 -70 4 -25 0
-50 -14 -81 -10 -25 -22 -64 -26 -87 l-7 -43 -69 0 c-84 0 -89 7 -100 130 -4
47 -14 105 -24 130 -9 25 -18 61 -20 81 -4 35 -4 35 93 91 87 50 99 54 117 42
26 -18 55 -18 84 2 16 12 20 19 12 27 -8 8 -14 8 -23 -1 -22 -22 -67 -14 -80
13 -29 64 47 105 91 48 26 -32 41 -22 21 15 -38 67 -132 44 -138 -34 -3 -38
-6 -40 -98 -92 -93 -52 -96 -53 -115 -36 -11 10 -27 32 -35 50 -9 18 -40 59
-69 91 -49 54 -52 61 -38 75 12 13 22 14 45 6 56 -20 129 18 162 84 10 20 20
23 86 26 64 3 77 0 90 -16 23 -28 54 -42 79 -35 15 4 39 -6 76 -31 58 -38 65
-41 65 -27 0 5 -22 25 -48 44 -45 32 -48 37 -44 71 5 47 -19 76 -62 76 -37 0
-49 -7 -65 -37 -11 -21 -19 -23 -91 -23 l-80 0 0 30 c0 38 -51 97 -94 108
l-31 8 -3 127 -3 126 43 3 c43 3 43 3 46 46 3 43 3 43 40 40 l37 -3 3 -166 c2
-140 5 -169 19 -180 12 -11 71 -15 232 -19 l216 -5 3 -27 c4 -38 22 -36 22 2
l0 30 189 0 c213 0 221 2 221 69 0 30 7 44 40 76 22 21 40 48 40 60 0 12 -17
38 -38 58 l-38 37 -1 206 c-2 140 -6 210 -14 220 -9 11 -50 14 -194 14 -101 0
-190 3 -199 6 -9 3 -16 16 -17 28 -1 19 -2 18 -8 -4 l-7 -25 -211 0 c-273 0
-253 16 -253 -197 l0 -158 -40 0 -40 0 0 44 0 45 -47 3 -48 3 -3 46 c-3 44 -6
49 -58 83 -35 23 -54 43 -54 56 0 13 -9 22 -27 26 -21 6 -31 2 -48 -19 -11
-15 -26 -27 -33 -27 -7 0 -12 -5 -12 -11 0 -6 7 -8 16 -5 8 3 26 -1 39 -10 17
-11 29 -13 41 -6 13 7 29 2 66 -22 44 -29 48 -34 48 -73 0 -42 -1 -43 -34 -43
-31 0 -34 -3 -41 -37 -4 -21 -10 -32 -12 -25 -3 6 -14 12 -25 12 -11 0 -56 30
-99 66 l-79 66 0 91 0 92 -63 24 c-53 20 -97 47 -196 118 -13 9 -25 4 -66 -28z
m80 -9 c28 -31 104 -77 169 -101 l59 -23 -6 -105 c-11 -201 -76 -334 -205
-423 -56 -39 -74 -34 -155 42 -109 102 -156 223 -157 402 l0 86 38 13 c58 18
123 54 172 93 52 41 60 43 85 16z m-838 -133 c10 -10 11 -655 1 -680 -7 -16
-34 -17 -420 -15 l-413 3 -3 343 c-2 334 -2 343 18 350 28 10 806 9 817 -1z
m2451 -201 c2 -176 1 -197 -13 -186 -12 10 -15 46 -17 184 l-3 171 -225 0
-225 1 215 -6 215 -5 2 -308 c1 -170 4 -311 6 -313 2 -3 10 2 17 11 18 22 32
18 28 -7 l-3 -23 -414 -3 c-297 -1 -418 1 -427 9 -11 9 -14 73 -14 329 0 175
3 326 6 334 6 15 50 16 428 14 l421 -3 3 -199z m-2073 143 c0 -7 -8 -15 -17
-17 -18 -3 -25 18 -11 32 10 10 28 1 28 -15z m880 1 c0 -8 -8 -16 -17 -18 -13
-2 -18 3 -18 18 0 15 5 20 18 18 9 -2 17 -10 17 -18z m-719 -195 c8 -32 23
-78 33 -101 l19 -42 -64 -47 c-45 -33 -69 -45 -84 -40 -11 3 -27 2 -37 -3 -13
-8 -26 -3 -55 21 -34 27 -38 35 -38 76 0 35 3 42 12 33 25 -25 67 0 69 41 0
14 22 40 62 74 34 28 63 50 65 49 1 -2 9 -29 18 -61z m610 13 c50 -41 64 -59
64 -80 0 -34 31 -54 59 -38 29 15 31 13 31 -29 0 -34 -5 -43 -46 -74 -35 -28
-51 -34 -64 -27 -9 5 -26 6 -38 3 -20 -5 -42 9 -135 88 -5 4 -1 21 8 39 21 41
45 118 45 148 0 12 3 22 6 22 3 0 34 -24 70 -52z m-866 -93 l0 -75 -70 0 -70
0 0 75 0 75 70 0 70 0 0 -75z m1180 0 l0 -75 -70 0 -70 0 0 75 0 75 70 0 70 0
0 -75z m-1097 10 c1 -5 -6 -11 -15 -13 -11 -2 -18 3 -18 13 0 17 30 18 33 0z
m898 0 c-1 -15 -24 -12 -29 3 -3 9 2 13 12 10 10 -1 17 -7 17 -13z m-132 -206
c2 -42 73 -50 86 -9 10 30 99 100 129 100 l26 0 0 -130 c0 -108 -3 -130 -15
-130 -8 0 -30 -14 -50 -31 -29 -26 -38 -29 -50 -19 -9 7 -19 10 -23 6 -4 -4 2
-15 13 -24 15 -13 19 -27 17 -59 -2 -23 2 -51 7 -62 8 -14 7 -22 -4 -31 -19
-16 -64 -5 -152 36 -39 19 -107 42 -150 50 -43 9 -95 20 -115 26 l-38 11 0
108 0 109 38 24 c20 13 43 31 51 40 7 9 19 16 25 16 21 0 116 -91 116 -111 0
-12 11 -24 28 -31 15 -7 35 -18 45 -27 9 -8 20 -11 25 -7 4 4 -1 14 -11 21
-13 9 -16 20 -11 39 8 33 -12 58 -42 54 -23 -3 -124 67 -124 85 0 5 10 21 23
36 l22 28 67 -51 c37 -28 67 -58 67 -67z m1400 23 c3 -1 -20 -27 -50 -58 -40
-40 -55 -51 -57 -38 -2 9 9 30 25 47 l28 32 -27 -24 -28 -24 0 83 0 84 52 -49
c29 -28 55 -51 57 -53z m-1900 62 c12 -15 21 -29 21 -33 -1 -15 -101 -81 -123
-81 -32 0 -51 -23 -45 -55 3 -14 -1 -30 -8 -36 -8 -6 -14 -15 -14 -20 0 -29
88 27 96 61 7 25 14 33 76 83 l36 28 61 -43 61 -42 0 -106 0 -107 -37 -10
c-21 -6 -67 -16 -103 -23 -71 -13 -202 -63 -220 -85 -6 -7 -20 -11 -30 -8 -11
3 -26 0 -34 -6 -23 -19 -33 9 -30 83 2 50 7 72 18 78 9 5 16 13 16 18 0 15
-28 12 -32 -2 -3 -9 -18 -2 -42 20 -20 17 -43 32 -51 32 -12 0 -15 22 -15 130
l0 130 26 0 c30 0 109 -61 127 -99 8 -17 22 -27 40 -29 22 -3 30 2 40 27 11
26 119 120 139 121 4 0 16 -12 27 -26z m-189 -79 c0 -8 -7 -15 -15 -15 -8 0
-15 7 -15 15 0 8 7 15 15 15 8 0 15 -7 15 -15z m750 0 c0 -8 -6 -15 -14 -15
-17 0 -28 14 -19 24 12 12 33 6 33 -9z m-654 -66 c10 -17 -13 -36 -27 -22 -12
12 -4 33 11 33 5 0 12 -5 16 -11z m558 -20 c-8 -14 -34 -11 -34 4 0 8 3 17 7
20 9 9 34 -13 27 -24z m-811 -149 c21 -24 27 -40 27 -76 0 -39 -5 -51 -34 -80
-40 -40 -84 -45 -130 -15 -59 39 -71 96 -33 152 45 67 119 76 170 19z m1176
15 c46 -39 57 -84 33 -138 -34 -76 -118 -88 -178 -26 -91 95 44 248 145 164z
m-1565 -71 c20 -19 20 -24 0 -52 -26 -38 -74 -22 -74 25 0 38 47 55 74 27z
m1900 0 c20 -20 20 -33 -1 -56 -30 -33 -73 -16 -73 29 0 38 47 55 74 27z
m-952 -21 c23 -28 28 -51 17 -80 -13 -34 -26 -43 -66 -43 -58 0 -82 64 -42
114 24 31 68 35 91 9z m-134 -53 c0 -40 -3 -50 -16 -50 -15 0 -143 -43 -194
-65 -14 -5 -18 -2 -18 13 0 11 -7 25 -15 32 -8 7 -15 17 -15 22 0 15 122 68
191 83 35 7 65 14 66 14 1 1 2 -21 1 -49z m311 19 c20 -6 57 -22 83 -35 l47
-24 -21 -37 c-12 -21 -22 -39 -23 -41 -1 -1 -26 9 -56 23 -30 13 -78 30 -106
36 -51 12 -53 14 -53 45 0 18 -2 39 -6 47 -4 12 4 13 46 6 29 -4 68 -13 89
-20z m-695 -91 c-3 -5 -12 -4 -20 3 -7 6 -11 15 -8 21 3 5 12 4 20 -3 7 -6 11
-15 8 -21z m975 6 c-9 -11 -15 -12 -23 -4 -8 8 -7 13 4 20 20 12 33 1 19 -16z
m-859 -14 c60 -60 -29 -150 -92 -93 -40 36 -8 113 47 113 14 0 34 -9 45 -20z
m808 0 c43 -41 16 -112 -43 -112 -37 0 -65 29 -65 68 0 58 65 84 108 44z
m-497 -7 c38 -18 38 -19 39 -74 l0 -56 -51 -7 c-28 -4 -69 -14 -90 -23 -36
-14 -41 -14 -58 1 -10 9 -26 16 -36 16 -21 0 -75 47 -75 66 0 18 168 88 224
93 5 1 27 -7 47 -16z m215 -4 c76 -23 139 -53 149 -70 10 -16 -45 -69 -72 -69
-12 0 -28 -9 -35 -19 -11 -18 -15 -18 -38 -6 -15 8 -57 19 -93 26 l-67 12 0
56 c0 50 3 58 28 73 36 22 48 22 128 -3z m-1036 -60 c16 -30 4 -68 -26 -79
-51 -20 -90 30 -60 75 21 32 70 34 86 4z m410 -67 c-1 -4 -20 -29 -44 -56
l-43 -48 -31 16 c-18 9 -32 21 -32 25 0 9 54 85 88 123 13 16 16 15 38 -18 13
-19 24 -38 24 -42z m1024 7 c25 -34 46 -65 46 -70 0 -5 -14 -16 -32 -25 l-31
-16 -43 48 c-24 27 -43 52 -44 56 0 15 42 78 50 73 5 -3 29 -33 54 -66z m-877
-11 c13 -12 23 -31 23 -43 0 -11 5 -26 12 -33 9 -9 2 -23 -33 -60 -25 -26 -56
-61 -68 -79 l-21 -32 -63 36 c-61 35 -63 37 -59 72 5 46 83 141 115 141 12 0
29 5 37 10 22 14 31 12 57 -12z m678 12 c3 -5 19 -10 34 -10 41 0 118 -91 122
-144 4 -37 2 -38 -59 -71 l-62 -33 -12 21 c-6 12 -36 48 -66 79 -45 48 -53 60
-42 72 6 9 10 21 7 28 -5 15 41 68 59 68 7 0 16 -4 19 -10z m-595 -66 c0 -8
-7 -14 -15 -14 -15 0 -21 21 -9 33 10 9 24 -2 24 -19z m405 -9 c90 -46 159
-114 202 -203 38 -75 38 -77 38 -196 0 -113 -2 -125 -29 -181 -38 -76 -124
-162 -201 -200 -56 -28 -68 -30 -180 -30 -117 0 -122 1 -190 34 -171 84 -266
259 -237 435 20 125 84 229 184 302 80 59 135 75 253 72 88 -3 108 -7 160 -33z
m83 12 c2 -10 -3 -17 -12 -17 -18 0 -29 16 -21 31 9 14 29 6 33 -14z m-808
-96 c0 -10 -8 -29 -19 -42 l-19 -23 -41 18 c-46 21 -50 35 -20 77 l20 29 40
-20 c24 -13 39 -27 39 -39z m1200 27 c11 -18 19 -37 17 -42 -2 -5 -20 -19 -42
-30 l-38 -20 -18 23 c-27 34 -23 56 14 79 43 27 44 27 67 -10z m732 -77 c35
-15 59 -18 101 -14 49 5 55 3 75 -21 15 -20 19 -36 15 -61 -4 -24 2 -51 18
-87 31 -71 32 -182 1 -251 -14 -32 -20 -65 -19 -98 2 -43 -2 -54 -23 -71 -19
-16 -34 -19 -67 -14 -31 4 -59 -1 -108 -19 -81 -31 -128 -31 -202 -3 -35 13
-74 21 -98 19 -30 -2 -48 3 -68 19 -24 19 -27 28 -26 74 1 33 -4 64 -16 86
-29 56 -32 182 -6 250 12 30 21 76 21 102 0 61 25 80 102 77 34 -1 73 6 108
20 64 25 121 23 192 -8z m-1998 -76 c-4 -22 -10 -60 -13 -84 l-6 -45 -44 -2
-44 -2 7 56 c4 32 13 78 22 104 l15 47 36 -17 c34 -16 35 -18 27 -57z m146 39
c47 -27 60 -40 55 -52 -4 -10 -11 -28 -16 -42 -7 -18 -31 -37 -84 -63 -42 -20
-80 -37 -85 -37 -25 0 0 147 33 197 12 18 25 33 29 33 4 0 34 -16 68 -36z
m1031 15 c32 -32 64 -209 38 -209 -7 0 -47 19 -89 41 -52 28 -80 49 -83 63 -2
12 -8 28 -11 38 -6 12 7 24 56 52 35 20 64 36 66 36 1 0 11 -9 23 -21z m134
-31 c8 -29 16 -75 17 -103 l3 -50 -40 1 -39 1 -12 69 c-17 98 -17 102 14 118
15 8 30 15 34 16 4 0 14 -24 23 -52z m-115 -215 c0 -9 -19 -13 -65 -13 l-65 0
0 34 c0 19 -3 42 -7 52 -5 13 11 8 65 -21 40 -22 72 -45 72 -52z m-1030 32 l0
-45 -65 0 c-46 0 -65 4 -65 13 0 11 104 76 123 77 4 0 7 -20 7 -45z m-175 -15
c37 -41 9 -110 -46 -110 -28 0 -69 39 -69 65 0 7 9 24 21 39 25 32 68 35 94 6z
m1337 3 c26 -23 24 -78 -4 -97 -12 -9 -31 -16 -42 -16 -28 0 -66 39 -66 67 0
52 72 82 112 46z m-1156 -103 c6 -27 9 -50 7 -50 -2 0 -35 16 -73 35 -91 46
-93 65 -7 65 l63 0 10 -50z m1019 32 c0 -12 -135 -95 -142 -88 -2 2 2 26 8 55
l11 52 61 -3 c43 -2 62 -7 62 -16z m-1080 -77 c86 -47 124 -85 102 -103 -7 -5
-40 -23 -73 -40 l-61 -31 -21 22 c-33 36 -65 170 -45 190 10 10 10 10 98 -38z
m1109 4 c-2 -69 -24 -144 -48 -161 -22 -16 -25 -15 -95 24 -70 38 -72 40 -58
61 15 23 175 117 192 113 6 -2 10 -18 9 -37z m-1238 -18 c3 -15 12 -48 19 -74
l13 -48 -31 -20 c-18 -10 -35 -19 -39 -19 -12 0 -38 101 -38 146 0 42 0 42 35
41 30 -1 37 -5 41 -26z m1344 -8 c0 -35 -23 -140 -33 -149 -3 -3 -21 3 -41 13
-26 12 -35 22 -31 32 4 9 11 38 16 66 15 75 16 75 54 75 34 0 35 -1 35 -37z
m-261 -134 c64 -36 71 -44 71 -71 0 -45 -75 -137 -113 -138 -15 0 -36 -5 -47
-12 -16 -10 -23 -9 -45 12 -14 13 -25 34 -25 46 0 13 -4 26 -10 29 -22 13 -11
63 18 84 16 11 40 36 53 55 13 20 25 36 26 36 1 0 33 -18 72 -41z m-772 -24
c51 -53 68 -95 43 -110 -5 -3 -10 -16 -10 -29 0 -12 -11 -33 -25 -46 -21 -20
-28 -22 -50 -12 -14 7 -34 12 -45 12 -29 0 -110 101 -110 138 0 27 7 34 63 66
34 19 66 35 71 36 5 0 33 -25 63 -55z m-243 -7 c26 -36 19 -56 -24 -78 l-40
-20 -20 32 c-26 43 -26 45 13 68 41 25 52 25 71 -2z m1213 -4 c21 -13 22 -17
10 -47 -16 -39 -44 -45 -80 -17 -31 25 -34 46 -10 72 17 19 40 17 80 -8z
m-843 -95 c-7 -12 -44 12 -44 29 0 9 6 8 25 -4 14 -9 22 -20 19 -25z m436 25
c0 -3 -7 -12 -16 -21 -8 -9 -14 -27 -12 -42 2 -20 9 -27 31 -29 40 -5 80 -45
72 -73 -8 -25 -103 -71 -182 -88 -47 -10 -55 -9 -87 12 l-35 22 -1 81 0 81 58
7 c31 4 80 17 107 30 53 26 65 30 65 20z m-741 -58 l42 -54 -24 -35 -24 -36
-25 27 c-32 35 -78 97 -78 106 0 5 59 46 66 46 1 0 20 -24 43 -54z m1111 14
c0 -12 -59 -95 -83 -118 l-24 -23 -22 36 -21 36 42 54 41 53 34 -16 c18 -9 33
-19 33 -22z m-842 -13 c2 -10 -3 -17 -12 -17 -18 0 -29 16 -21 31 9 14 29 6
33 -14z m180 6 l42 -6 0 -83 c0 -60 -4 -84 -12 -84 -7 0 -24 -9 -37 -19 -27
-21 -71 -16 -160 18 -103 39 -123 67 -78 109 14 13 30 19 43 16 15 -4 28 4 49
31 26 35 30 37 69 31 22 -4 60 -10 84 -13z m315 11 c9 -10 -4 -34 -19 -34 -8
0 -14 6 -14 13 0 22 19 35 33 21z m181 -105 c49 -39 22 -119 -41 -119 -63 0
-87 80 -37 119 15 12 32 21 39 21 7 0 24 -9 39 -21z m-2009 -23 l-26 -21 25
-24 c13 -13 29 -20 35 -16 8 4 4 13 -11 24 l-22 18 22 12 c17 9 23 8 36 -11
15 -20 14 -24 -6 -45 -12 -13 -26 -23 -31 -23 -19 0 -67 42 -67 60 0 22 48 63
62 54 6 -4 -2 -16 -17 -28z m356 24 c24 -14 24 -26 0 -40 -14 -7 -27 -7 -45 2
-30 13 -33 23 -8 37 22 13 29 13 53 1z m332 -18 c25 -22 21 -45 -14 -71 l-31
-23 -29 28 c-27 26 -28 29 -12 46 15 17 18 17 32 3 14 -14 14 -17 1 -25 -10
-6 -12 -12 -4 -20 7 -7 17 -3 33 13 l22 24 -26 17 c-14 9 -23 21 -20 27 7 10
20 5 48 -19z m521 6 c33 -47 4 -108 -51 -108 -55 0 -85 70 -46 112 23 26 78
24 97 -4z m1340 0 c9 -12 16 -30 16 -40 0 -22 -34 -58 -55 -58 -22 0 -55 37
-55 62 0 52 65 77 94 36z m-2236 -92 c3 -39 -3 -43 -30 -22 -12 8 -18 27 -18
51 0 37 1 37 23 23 15 -10 23 -27 25 -52z m65 -22 c-27 -20 -33 -17 -33 20 0
24 7 38 23 49 21 14 22 14 25 -20 2 -25 -2 -39 -15 -49z m939 31 c29 -13 76
-29 105 -35 l51 -11 4 -45 c3 -43 3 -44 -28 -44 -60 0 -242 69 -231 88 2 4 10
22 17 40 8 17 17 32 21 32 4 0 31 -11 61 -25z m577 -11 c12 -19 21 -37 21 -39
0 -3 -19 -14 -42 -26 -105 -54 -238 -79 -224 -43 3 9 6 28 6 43 0 24 5 28 68
44 52 14 110 36 149 56 0 1 10 -15 22 -35z m-799 -13 c0 -13 -26 -32 -33 -24
-8 7 11 33 24 33 5 0 9 -4 9 -9z m519 -4 c40 -49 12 -117 -48 -119 -59 -2 -90
60 -55 110 18 25 84 31 103 9z m446 -5 c0 -18 -20 -15 -23 4 -3 10 1 15 10 12
7 -3 13 -10 13 -16z m-1022 -26 c29 -27 48 -84 40 -118 -9 -35 -53 -77 -89
-84 -73 -14 -143 58 -130 131 15 80 123 123 179 71z m1172 9 c39 -19 60 -55
60 -106 0 -70 -79 -122 -149 -99 -43 14 -82 84 -71 128 20 81 85 112 160 77z
m-995 -30 c80 -49 143 -68 308 -91 l32 -5 0 -84 0 -84 -47 -7 c-27 -3 -77 -17
-111 -31 l-64 -25 -34 33 c-19 18 -34 43 -34 55 0 27 -22 46 -52 43 -13 -1
-31 2 -41 6 -25 10 -36 -4 -14 -19 9 -7 17 -18 17 -25 0 -18 38 -51 53 -46 7
3 28 -11 47 -30 l35 -36 -30 -23 c-25 -20 -34 -22 -66 -13 -23 5 -41 17 -44
28 -9 28 -52 35 -76 13 -16 -14 -20 -27 -16 -50 4 -26 0 -37 -23 -59 -52 -49
-60 -33 -60 115 0 106 3 130 14 130 8 0 29 12 46 27 28 23 35 25 52 14 28 -17
38 -2 11 16 -19 13 -21 21 -16 63 3 26 1 56 -5 66 -8 14 -7 23 4 35 18 20 67
13 114 -16z m807 23 c5 -7 9 -46 8 -87 -2 -56 -6 -76 -19 -83 -9 -5 -16 -13
-16 -18 0 -16 30 -11 36 5 5 12 13 9 40 -15 19 -16 41 -30 50 -30 12 0 14 -20
12 -132 -3 -120 -5 -133 -21 -136 -11 -2 -32 8 -47 23 -24 23 -27 33 -23 61
10 62 -47 88 -85 39 -17 -21 -60 -46 -80 -45 -4 0 -20 12 -36 26 l-29 25 34
35 c18 19 39 32 47 29 7 -3 22 0 33 6 30 15 23 73 -9 77 -29 4 -52 -14 -52
-42 0 -12 -16 -37 -35 -56 l-34 -33 -51 21 c-28 12 -77 26 -110 33 l-60 12 0
83 c0 46 1 84 3 84 1 0 39 5 84 10 94 12 177 39 242 78 39 23 67 34 102 41 4
0 11 -5 16 -11z m-1357 -109 c9 -16 8 -26 -5 -45 -17 -27 -27 -29 -56 -14 -21
12 -25 50 -7 68 19 19 56 14 68 -9z m1900 6 c15 -19 6 -61 -16 -69 -42 -16
-82 35 -54 69 16 19 54 19 70 0z m-1330 -155 c0 -21 -15 -27 -25 -10 -7 12 2
30 16 30 5 0 9 -9 9 -20z m686 9 c10 -17 -13 -36 -27 -22 -12 12 -4 33 11 33
5 0 12 -5 16 -11z m-180 -109 c81 -39 151 -107 188 -181 24 -49 25 -54 9 -71
-9 -10 -19 -18 -22 -18 -4 0 -14 22 -24 48 -24 71 -86 135 -165 174 -61 30
-74 33 -162 33 -83 0 -102 -3 -155 -28 -33 -15 -77 -45 -98 -65 -39 -37 -87
-118 -87 -147 0 -18 -9 -19 -32 -1 -15 11 -16 18 -6 47 26 77 100 159 181 201
76 39 118 48 213 45 80 -2 99 -7 160 -37z m-592 -29 c9 -14 -4 -41 -19 -41
-17 0 -38 27 -30 40 8 12 42 13 49 1z m518 -20 c2 1 13 -1 26 -5 25 -8 29 -31
8 -39 -10 -4 -13 -1 -10 7 6 16 -14 25 -80 36 -46 7 -132 -5 -178 -25 -10 -4
-18 -3 -18 2 0 12 100 42 150 46 19 1 50 -4 67 -11 18 -7 34 -12 35 -11z m358
9 c0 -24 -26 -38 -42 -22 -16 16 -2 42 22 42 13 0 20 -7 20 -20z m-815 -30
c23 -9 25 -13 15 -25 -11 -14 -15 -14 -31 1 -17 16 -25 34 -15 34 3 0 17 -5
31 -10z m355 0 c-36 -4 -53 -7 -39 -8 22 -2 26 -6 21 -27 -3 -16 -11 -25 -23
-25 -15 0 -19 -7 -19 -40 l0 -40 -40 0 c-33 0 -40 -3 -40 -20 0 -15 7 -20 25
-20 l25 0 0 -100 0 -100 -25 0 c-18 0 -25 -5 -25 -20 0 -17 7 -20 40 -20 l40
0 0 -41 c0 -33 3 -40 18 -37 12 2 18 14 20 41 5 53 32 51 32 -3 0 -29 4 -40
15 -40 11 0 15 11 15 38 0 35 2 38 47 52 58 18 83 54 67 97 -6 18 -20 32 -41
38 -31 10 -31 11 -10 20 28 13 35 60 12 85 -10 11 -30 22 -46 25 -25 6 -29 11
-29 41 0 24 -5 34 -15 34 -10 0 -15 -11 -15 -35 0 -24 -5 -35 -15 -35 -10 0
-15 10 -15 34 0 21 6 36 15 40 8 3 15 12 15 21 0 9 9 15 24 15 13 0 33 2 43 5
10 3 5 -2 -12 -10 l-30 -16 30 5 c26 4 28 3 12 -9 -16 -12 -15 -14 15 -24 30
-10 31 -9 14 4 -18 13 -18 14 2 12 11 0 19 -4 17 -8 -3 -3 9 -19 25 -34 17
-16 30 -24 30 -18 0 6 -7 16 -15 23 -11 9 -12 16 -5 25 7 8 7 16 2 19 -11 7
-3 56 9 56 17 0 20 -22 5 -33 -15 -11 -13 -16 19 -47 41 -40 47 -30 8 13 -16
17 -23 27 -16 23 6 -3 13 0 16 6 4 10 7 10 18 0 12 -11 12 -14 0 -21 -9 -6
-10 -11 -2 -15 6 -4 11 -2 11 3 0 23 20 9 50 -36 17 -27 29 -56 26 -65 -2 -10
0 -18 5 -18 5 0 9 -7 9 -16 0 -9 -6 -14 -12 -11 -7 2 -13 13 -12 24 0 11 -9
26 -19 33 -18 11 -19 10 -12 -7 4 -10 9 -27 11 -38 2 -11 -1 -7 -7 9 l-12 29
-13 -24 c-18 -32 -17 -49 1 -25 13 18 15 18 15 2 0 -9 6 -16 13 -15 30 4 47
-2 47 -17 0 -12 -10 -14 -51 -12 -43 2 -55 8 -72 30 -12 15 -18 30 -15 34 3 3
14 -8 24 -25 16 -26 24 -31 58 -31 45 0 46 7 1 11 -16 2 -36 7 -42 12 -16 12
-17 31 -1 21 8 -5 9 -2 3 12 -4 10 -8 26 -9 35 0 9 -6 16 -12 16 -9 0 -10 -7
-3 -24 13 -34 11 -37 -6 -23 -9 7 -14 19 -11 26 3 8 0 13 -7 11 -7 -1 -11 4
-9 11 2 10 -2 10 -19 2 -11 -7 -23 -9 -27 -6 -3 3 0 6 6 6 6 0 9 7 6 15 -5 11
-11 12 -24 5 -24 -13 -40 -13 -20 0 8 5 11 10 5 10 -5 0 -16 -4 -23 -9 -11 -7
-11 -9 2 -14 9 -4 23 -3 33 0 10 4 14 2 10 -4 -4 -6 4 -18 17 -27 14 -8 24
-24 24 -33 0 -10 3 -27 8 -38 7 -18 6 -19 -11 -5 -12 10 -9 2 8 -20 26 -36 27
-36 94 -34 l68 3 -67 -11 -67 -10 -27 31 c-15 18 -29 29 -32 26 -3 -3 7 -19
23 -35 26 -27 35 -30 99 -32 65 -2 66 -2 16 -5 -30 -2 -65 -5 -77 -8 -27 -6
-31 -32 -5 -32 83 1 122 -4 116 -14 -4 -7 -24 -9 -50 -6 -29 3 -42 1 -41 -7 3
-19 21 -25 36 -13 12 10 13 9 6 -3 -6 -12 -5 -13 6 -2 15 13 29 16 29 5 0 -12
-71 -93 -81 -93 -5 0 -9 7 -9 16 0 9 -5 12 -12 8 -9 -5 -9 -2 1 9 8 10 9 17 3
17 -6 0 -13 -4 -17 -10 -3 -5 -11 -7 -19 -4 -7 3 -13 -2 -13 -11 0 -9 6 -14
14 -11 21 8 15 -2 -8 -15 -17 -9 -20 -8 -14 2 6 9 3 11 -9 6 -10 -4 -15 -3
-11 3 9 15 -21 23 -42 11 -14 -8 -15 -11 -3 -12 8 0 2 -7 -15 -15 -22 -11 -24
-14 -7 -10 12 2 20 0 16 -5 -6 -11 -2 -11 20 -3 9 3 13 10 10 15 -3 5 3 6 12
2 14 -5 13 -8 -9 -19 -30 -16 -87 -8 -87 12 0 8 -7 14 -15 14 -8 0 -15 -7 -15
-15 0 -8 -6 -15 -14 -15 -8 0 -23 -2 -33 -5 -10 -3 -6 1 9 8 l27 13 -47 16
c-29 11 -63 34 -87 60 -22 23 -28 33 -14 20 31 -27 49 -29 25 -3 -12 13 -14
21 -6 26 5 3 8 11 4 16 -3 5 -10 7 -15 3 -5 -3 -6 -11 -2 -17 5 -8 2 -8 -9 0
-8 7 -19 9 -23 5 -5 -4 -5 -1 -1 6 4 7 11 10 16 7 5 -3 13 2 18 11 6 11 11 13
16 5 10 -16 56 -14 56 3 0 19 -52 27 -70 11 -13 -12 -15 -7 -12 46 3 42 8 59
18 59 9 0 14 10 13 28 l-1 27 -8 -25 c-4 -14 -8 -18 -9 -10 -1 9 -8 26 -17 38
-12 17 -19 20 -29 12 -10 -8 -15 -8 -21 2 -4 7 -3 10 1 5 5 -4 19 3 33 15 13
13 25 22 28 21 2 -2 4 0 4 5 0 4 -10 6 -21 6 -19 -1 -18 1 8 28 37 40 62 53
59 32 -1 -9 -9 -20 -17 -24 -8 -5 -14 -18 -14 -29 0 -10 -9 -28 -19 -40 -11
-12 -14 -21 -9 -21 13 0 34 24 37 42 5 31 28 57 65 71 52 21 58 34 19 43 -29
6 -30 8 -13 15 11 4 47 7 80 7 l60 -1 -65 -7z m373 -11 c-13 -14 -26 -18 -34
-13 -10 6 -5 11 16 20 41 18 43 17 18 -7z m-533 1 c0 -13 -36 -31 -45 -22 -5
4 -6 2 -3 -3 4 -6 -9 -26 -28 -45 -19 -19 -34 -39 -34 -45 0 -5 12 5 26 23 14
18 31 29 37 25 6 -4 2 -9 -11 -14 -12 -5 -22 -13 -22 -19 0 -6 5 -8 12 -4 7 4
8 3 4 -5 -4 -6 -12 -9 -17 -5 -5 3 -16 -10 -25 -28 -14 -31 -15 -31 -9 -5 3
17 2 26 -4 23 -5 -3 -12 -24 -16 -46 -4 -22 -10 -42 -14 -44 -8 -5 -6 -65 4
-95 7 -24 -10 -29 -19 -5 -20 51 8 180 48 227 14 16 26 32 28 36 4 10 72 61
81 61 4 0 7 -4 7 -10z m41 -11 c-13 -5 -37 -19 -54 -31 -17 -12 -27 -16 -23
-9 11 18 68 51 86 50 8 0 4 -5 -9 -10z m172 4 c-7 -2 -21 -2 -30 0 -10 3 -4 5
12 5 17 0 24 -2 18 -5z m-439 -21 c15 -18 15 -22 -10 -75 -14 -32 -31 -57 -38
-57 -7 0 -21 -9 -31 -20 -17 -18 -20 -19 -35 -5 -40 36 -3 150 53 167 36 10
43 9 61 -10z m326 8 c8 -5 11 -10 5 -10 -5 0 -17 5 -25 10 -8 5 -10 10 -5 10
6 0 17 -5 25 -10z m535 -20 c37 -38 50 -112 25 -135 -16 -14 -21 -14 -53 2
-26 14 -41 31 -57 71 -21 51 -22 54 -5 72 26 28 57 25 90 -10z m-555 5 c0 -2
-6 -5 -13 -8 -8 -3 -14 1 -14 8 0 7 6 11 14 8 7 -3 13 -6 13 -8z m690 -55 c11
-11 20 -23 20 -28 0 -18 -33 -52 -50 -52 -17 0 -50 34 -50 52 0 11 38 48 50
48 6 0 19 -9 30 -20z m-1162 -2 c39 -39 -17 -100 -58 -63 -34 31 -20 75 25 75
12 0 26 -5 33 -12z m717 -68 c10 -11 16 -20 13 -20 -3 0 -13 9 -23 20 -10 11
-16 20 -13 20 3 0 13 -9 23 -20z m-121 -26 c25 -25 4 -54 -39 -54 -33 0 -35 2
-35 35 0 32 2 35 29 35 16 0 37 -7 45 -16z m-430 -15 c30 -23 33 -45 10 -77
-18 -26 -50 -28 -76 -5 -24 21 -23 58 2 83 25 25 31 25 64 -1z m199 -56 c-5
-62 -22 -123 -23 -83 0 13 -2 13 -9 1 -5 -8 -16 -16 -25 -17 -13 -2 -14 2 -5
17 5 11 14 17 20 14 5 -4 8 17 7 52 l-1 58 -7 -50 -7 -50 -3 50 -3 50 -7 -50
-7 -50 -1 42 c-2 52 7 81 19 61 7 -10 9 -10 9 2 0 13 1 13 10 0 5 -8 10 -40
11 -70 l2 -55 7 70 c4 39 5 74 2 79 -3 5 0 6 5 3 7 -4 9 -33 6 -74z m617 67
c30 -16 42 -45 30 -74 -11 -30 -49 -42 -79 -26 -30 15 -29 73 1 94 27 19 24
19 48 6z m-240 -35 c21 -34 24 -35 83 -37 l62 -1 -70 -6 c-56 -5 -72 -4 -82 9
-6 8 -9 18 -7 22 3 4 0 17 -6 28 -18 33 -3 22 20 -15z m-483 -37 c-3 -7 -5 -2
-5 12 0 14 2 19 5 13 2 -7 2 -19 0 -25z m20 -25 c-3 -10 -5 -2 -5 17 0 19 2
27 5 18 2 -10 2 -26 0 -35z m331 -9 c12 -8 22 -21 22 -29 0 -21 -41 -45 -77
-45 -32 0 -33 1 -33 45 0 44 1 45 33 45 18 0 43 -7 55 -16z m-402 -31 c22 -92
104 -189 194 -232 48 -23 68 -26 150 -25 76 0 105 5 145 23 91 41 195 166 195
236 0 28 7 30 34 10 17 -13 17 -16 1 -65 -42 -126 -167 -227 -309 -250 -178
-28 -357 65 -432 225 -27 57 -29 76 -12 93 18 18 27 15 34 -15z m884 -68 c-1
-30 -47 -76 -85 -85 -28 -6 -37 -4 -56 16 -22 23 -22 25 -6 59 9 20 17 44 17
55 0 11 12 26 28 34 26 14 29 13 65 -22 20 -20 37 -45 37 -57z m-977 73 c9 -7
26 -38 37 -67 18 -51 18 -57 4 -79 -14 -21 -21 -23 -52 -17 -43 8 -91 57 -92
95 0 16 11 34 32 52 37 31 47 33 71 16z m172 -18 c-4 -11 0 -29 8 -41 14 -19
16 -19 25 -4 8 16 10 16 15 1 4 -9 1 -15 -6 -13 -7 1 -11 -6 -11 -15 1 -10 -2
-15 -7 -12 -5 3 -9 0 -9 -5 0 -32 -42 16 -63 72 -13 34 13 16 33 -24 12 -23
24 -38 27 -35 3 2 -4 20 -15 38 -15 25 -17 36 -8 45 16 17 18 16 11 -7z m130
-8 c-3 -3 -11 0 -18 7 -9 10 -8 11 6 5 10 -3 15 -9 12 -12z m411 7 c-28 -4
-55 -5 -62 -1 -7 4 15 8 49 8 l62 2 -49 -9z m-848 -47 c3 -16 -2 -22 -16 -22
-24 0 -35 23 -19 39 16 16 31 8 35 -17z m1180 5 c4 -21 -25 -34 -40 -19 -8 8
-8 16 2 27 16 19 34 15 38 -8z m-784 -56 c9 -7 14 -17 11 -21 -3 -5 -1 -11 5
-15 6 -4 8 -11 5 -16 -4 -5 -2 -9 3 -9 17 0 22 13 10 27 -7 9 0 8 20 -4 20
-12 27 -20 19 -25 -9 -6 -8 -8 2 -8 8 0 12 -3 9 -6 -4 -3 -15 -1 -26 5 -16 8
-24 8 -34 -3 -11 -11 -17 -11 -31 -1 -21 15 -22 29 -2 22 25 -10 25 9 0 33
-14 13 -25 18 -25 11 0 -7 -5 -9 -12 -5 -10 6 -10 4 0 -7 19 -20 14 -31 -8
-19 -26 14 -25 27 0 35 11 4 18 10 15 15 -8 13 21 6 39 -9z m-182 -52 c-4 -4
-18 -10 -32 -14 l-25 -7 24 26 c18 19 27 23 32 14 5 -7 5 -16 1 -19z m743 1
c10 -11 15 -20 11 -20 -14 0 -46 21 -46 30 0 16 16 11 35 -10z m-201 -27 c-9
-6 -23 -9 -32 -6 -9 4 -13 2 -8 -5 8 -13 -29 -26 -45 -17 -6 4 10 19 38 35 33
19 50 24 55 16 4 -6 1 -16 -8 -23z m-604 -17 c0 -20 -25 -37 -44 -30 -19 7
-22 50 -3 57 17 6 47 -11 47 -27z m900 -7 c0 -23 -15 -32 -40 -24 -25 8 -26
41 -3 54 22 12 43 -3 43 -30z m-581 5 c2 -2 2 -6 0 -9 -8 -7 -49 7 -49 17 0 8
38 2 49 -8z m129 -1 c-16 -2 -40 -2 -55 0 -16 2 -3 4 27 4 30 0 43 -2 28 -4z
m62 -13 c3 -1 -4 -5 -15 -10 -38 -16 -165 -9 -165 9 0 5 160 6 180 1z"/><path d="M1945 3699 c-27 -21 -78 -51 -112 -66 l-63 -27 0 -86 c0 -128 34
-238 97 -315 37 -44 115 -105 137 -105 10 0 51 33 91 73 56 56 77 85 94 132
28 74 41 149 41 237 l0 66 -45 18 c-25 9 -78 39 -116 66 -39 26 -71 48 -72 47
-1 0 -24 -18 -52 -40z m105 -27 c19 -13 61 -37 93 -53 l57 -29 0 -83 c0 -96
-16 -164 -56 -237 -29 -53 -115 -140 -139 -140 -25 0 -100 66 -137 120 -45 65
-78 184 -78 274 l1 61 78 38 c43 21 88 49 101 62 13 13 28 21 34 18 6 -4 27
-18 46 -31z"/><path d="M1985 3640 c-3 -5 1 -10 9 -10 9 0 16 5 16 10 0 6 -4 10 -9 10 -6 0
-13 -4 -16 -10z"/><path d="M2100 3580 c0 -5 5 -10 10 -10 6 0 10 5 10 10 0 6 -4 10 -10 10 -5 0
-10 -4 -10 -10z"/><path d="M1820 3560 c0 -5 5 -10 10 -10 6 0 10 5 10 10 0 6 -4 10 -10 10 -5 0
-10 -4 -10 -10z"/><path d="M1960 3510 c-11 -11 -20 -28 -20 -38 0 -9 -10 -22 -22 -27 -21 -9
-23 -18 -26 -89 -2 -57 1 -82 10 -87 7 -5 55 -9 105 -9 108 0 106 -1 101 110
-3 56 -6 66 -25 75 -14 6 -23 19 -23 31 0 48 -64 70 -100 34z m61 -10 c10 -6
19 -20 19 -30 0 -17 -7 -20 -40 -20 -43 0 -50 12 -23 42 19 21 19 21 44 8z
m59 -145 l0 -66 -82 3 -83 3 -3 40 c-6 81 -2 85 88 85 l80 0 0 -65z"/><path d="M1989 3388 c-1 -2 -2 -18 -4 -35 -2 -26 1 -33 15 -33 14 0 18 8 18
35 0 23 -5 35 -14 35 -8 0 -14 -1 -15 -2z"/><path d="M1816 3473 c-11 -11 -6 -23 9 -23 8 0 15 4 15 9 0 13 -16 22 -24 14z"/><path d="M2150 3460 c0 -5 7 -10 15 -10 8 0 15 5 15 10 0 6 -7 10 -15 10 -8 0
-15 -4 -15 -10z"/><path d="M1847 3374 c-8 -8 1 -24 14 -24 5 0 9 7 9 15 0 15 -12 20 -23 9z"/><path d="M1985 3181 c-6 -11 9 -23 19 -14 9 9 7 23 -3 23 -6 0 -12 -4 -16 -9z"/><path d="M392 3273 l3 -318 388 -3 387 -2 0 320 0 320 -390 0 -390 0 2 -317z
m758 -3 l0 -300 -370 0 -370 0 0 300 0 300 370 0 370 0 0 -300z"/><path d="M430 3525 c0 -32 2 -35 30 -35 25 0 30 4 30 25 0 22 4 25 35 25 19 0
35 -4 35 -10 0 -5 -11 -10 -25 -10 -20 0 -25 -5 -25 -25 0 -18 -7 -28 -26 -35
-35 -14 -42 -13 -47 8 -3 10 -5 6 -6 -10 -1 -22 4 -28 19 -28 30 0 70 29 70
50 0 13 9 20 28 22 21 2 27 8 27 28 0 24 -3 25 -72 28 l-73 3 0 -36z m50 0 c0
-8 -9 -15 -20 -15 -11 0 -20 7 -20 15 0 8 9 15 20 15 11 0 20 -7 20 -15z"/><path d="M602 3508 c-2 -51 -5 -59 -34 -82 -18 -14 -28 -26 -21 -26 7 0 24 10
38 23 24 20 26 27 22 82 l-3 60 -2 -57z"/><path d="M632 3513 c1 -44 2 -45 5 -10 l4 37 50 0 c27 0 49 5 49 10 0 6 -25
10 -55 10 l-55 0 2 -47z"/><path d="M820 3550 c0 -5 22 -10 49 -10 l50 0 4 -37 c3 -35 4 -34 5 10 l2 47
-55 0 c-30 0 -55 -4 -55 -10z"/><path d="M952 3505 c-1 -51 2 -63 22 -82 13 -13 32 -23 42 -23 13 0 8 7 -18
25 -34 23 -37 29 -41 83 l-3 57 -2 -60z"/><path d="M982 3533 c2 -22 9 -29 31 -31 19 -2 27 -9 27 -23 0 -23 -15 -25 -24
-4 -6 17 -36 21 -36 5 0 -5 5 -10 11 -10 6 0 22 -13 36 -30 18 -23 33 -30 59
-30 l34 0 0 -130 0 -130 -58 0 c-51 0 -62 -4 -85 -28 -22 -23 -27 -37 -27 -80
0 -29 3 -52 8 -52 4 0 5 22 4 49 -3 40 0 53 21 75 21 23 32 26 86 26 l61 0 0
140 0 140 -34 0 c-42 0 -50 12 -47 62 2 35 0 38 -24 38 -14 0 -25 5 -25 10 0
6 27 10 60 10 53 0 60 -2 60 -20 0 -13 -7 -20 -20 -20 -16 0 -20 -7 -20 -35 0
-31 3 -35 25 -35 21 0 25 5 24 28 -1 16 -3 20 -6 10 -6 -25 -33 -23 -33 2 0
13 7 20 20 20 16 0 20 7 20 35 l0 35 -76 0 -75 0 3 -27z"/><path d="M673 3513 c9 -2 25 -2 35 0 9 3 1 5 -18 5 -19 0 -27 -2 -17 -5z"/><path d="M853 3513 c9 -2 25 -2 35 0 9 3 1 5 -18 5 -19 0 -27 -2 -17 -5z"/><path d="M713 3387 l-61 -112 51 -97 c83 -157 73 -155 140 -31 32 59 59 114
60 123 1 16 -113 230 -123 230 -3 -1 -33 -51 -67 -113z m57 -4 c0 -46 -2 -49
-41 -71 -23 -13 -40 -20 -38 -15 8 17 74 133 76 133 2 0 3 -21 3 -47z m64 -20
c20 -34 36 -64 36 -67 0 -4 -18 4 -40 16 -38 22 -40 25 -40 72 0 27 2 47 4 45
2 -2 20 -32 40 -66z m-64 -93 c0 -34 0 -34 -35 -18 -31 14 -32 22 -2 36 33 16
37 15 37 -18z m59 19 c35 -12 40 -24 14 -32 -10 -2 -26 -8 -35 -12 -15 -6 -18
-2 -18 24 0 17 2 31 4 31 1 0 17 -5 35 -11z m-59 -133 l0 -51 -35 65 c-19 35
-35 65 -35 67 0 1 16 -5 35 -14 33 -16 35 -19 35 -67z m56 13 l-36 -64 0 51
c0 47 2 51 33 66 17 9 33 14 35 13 2 -2 -13 -31 -32 -66z"/><path d="M561 3482 c-8 -3 -26 -18 -39 -33 -18 -22 -33 -29 -58 -29 l-34 0 0
-140 0 -140 58 0 c51 0 62 -4 85 -28 21 -22 27 -38 27 -75 l0 -47 78 2 c68 2
70 2 20 5 l-57 4 -4 37 -4 37 -1 -37 c-3 -55 -22 -47 -22 9 0 37 -6 53 -27 75
-23 24 -34 28 -85 28 l-58 0 0 125 0 125 29 0 c20 0 41 12 70 41 43 43 46 50
22 41z"/><path d="M668 3483 c7 -3 16 -2 19 1 4 3 -2 6 -13 5 -11 0 -14 -3 -6 -6z"/><path d="M868 3483 c6 -2 18 -2 25 0 6 3 1 5 -13 5 -14 0 -19 -2 -12 -5z"/><path d="M608 3411 c-13 -11 -37 -21 -53 -24 -30 -4 -30 -4 4 -6 22 -1 43 7
63 24 34 29 22 34 -14 6z"/><path d="M939 3408 c22 -25 30 -28 85 -26 l61 2 -60 3 c-44 3 -67 10 -85 26
l-25 22 24 -27z"/><path d="M462 3353 c1 -37 1 -37 5 -6 3 26 9 33 31 36 24 4 24 4 -5 6 -32 1
-33 0 -31 -36z"/><path d="M495 3300 c-18 -20 -18 -21 2 -42 l21 -21 26 20 25 20 -23 22 c-27
26 -29 26 -51 1z m39 -19 c3 -5 -1 -11 -9 -15 -15 -6 -29 7 -18 18 9 9 21 8
27 -3z"/><path d="M1015 3300 c-18 -20 -18 -21 3 -43 l22 -21 22 21 c21 22 21 23 3 43
-10 11 -21 20 -25 20 -4 0 -15 -9 -25 -20z m40 -20 c3 -5 -1 -10 -9 -10 -9 0
-16 5 -16 10 0 6 4 10 9 10 6 0 13 -4 16 -10z"/><path d="M458 3205 l4 -35 57 0 c48 0 61 -4 81 -25 24 -25 50 -33 50 -15 0 6
-6 10 -13 10 -8 0 -22 9 -32 20 -14 16 -31 20 -77 20 -58 0 -58 0 -58 30 0 17
-4 30 -8 30 -4 0 -6 -16 -4 -35z"/><path d="M1090 3211 c0 -23 -5 -31 -22 -34 -20 -4 -19 -4 5 -6 25 -1 27 2 27
34 0 19 -2 35 -5 35 -3 0 -5 -13 -5 -29z"/><path d="M947 3155 c-17 -15 -22 -25 -14 -25 8 0 22 9 31 19 10 11 30 22 45
24 25 4 25 4 -4 5 -19 1 -40 -8 -58 -23z"/><path d="M431 3088 c2 -31 2 -31 6 -5 4 24 8 27 43 27 31 0 43 -5 56 -25 9
-14 23 -25 31 -25 11 0 9 8 -9 29 -20 26 -30 30 -75 30 l-53 1 1 -32z"/><path d="M1022 3100 c-7 -11 -19 -20 -27 -20 -8 0 -15 -4 -15 -10 0 -19 32
-10 52 15 14 18 29 25 54 25 31 0 34 -3 34 -29 0 -23 -5 -30 -22 -33 -15 -2
-24 -11 -26 -25 -3 -19 -10 -23 -38 -23 -24 0 -34 5 -34 15 0 9 9 15 24 15 17
0 26 7 30 24 4 15 15 26 29 29 l22 4 -22 2 c-14 0 -29 -9 -39 -24 -11 -17 -24
-25 -38 -23 -16 2 -22 -3 -24 -24 l-3 -28 75 0 76 0 0 65 0 65 -48 0 c-36 0
-50 -5 -60 -20z m98 -86 c0 -9 -7 -14 -17 -12 -25 5 -28 28 -4 28 12 0 21 -6
21 -16z"/><path d="M483 3083 c21 -3 27 -10 27 -29 0 -19 5 -24 25 -24 16 0 25 -6 25
-15 0 -10 -11 -15 -35 -15 -30 0 -35 3 -35 24 0 21 -5 25 -30 24 -26 -1 -30
-5 -30 -30 l0 -28 75 0 c73 0 75 1 75 25 0 20 -5 25 -25 25 -18 0 -28 7 -35
25 -7 19 -16 25 -37 24 l-28 -2 28 -4z m-3 -68 c0 -8 -9 -15 -20 -15 -11 0
-20 7 -20 15 0 8 9 15 20 15 11 0 20 -7 20 -15z"/><path d="M920 3035 l0 -34 -57 -4 -58 -3 63 -2 62 -2 0 40 c0 22 -2 40 -5 40
-3 0 -5 -16 -5 -35z"/><path d="M660 3030 c0 -5 11 -10 25 -10 14 0 25 5 25 10 0 6 -11 10 -25 10
-14 0 -25 -4 -25 -10z"/><path d="M850 3030 c0 -5 11 -10 25 -10 14 0 25 5 25 10 0 6 -11 10 -25 10
-14 0 -25 -4 -25 -10z"/><path d="M768 2993 c6 -2 18 -2 25 0 6 3 1 5 -13 5 -14 0 -19 -2 -12 -5z"/><path d="M2830 3323 c0 -145 -3 -268 -5 -275 -3 -7 -1 -26 4 -43 6 -20 10 72
10 267 1 272 2 298 19 307 15 9 15 10 -5 8 l-22 -1 -1 -263z"/><path d="M3138 3583 c7 -3 16 -2 19 1 4 3 -2 6 -13 5 -11 0 -14 -3 -6 -6z"/><path d="M3390 3460 c0 -16 5 -21 23 -18 12 2 22 10 22 18 0 8 -10 16 -22 18
-18 3 -23 -2 -23 -18z"/><path d="M3450 3460 c0 -13 7 -20 20 -20 13 0 20 7 20 20 0 13 -7 20 -20 20
-13 0 -20 -7 -20 -20z"/><path d="M3510 3459 c0 -14 5 -19 17 -17 26 5 29 38 4 38 -15 0 -21 -6 -21
-21z"/><path d="M3102 3398 c-20 -21 -33 -48 -38 -74 -5 -37 -3 -45 27 -78 l32 -37
-47 -48 c-40 -41 -47 -53 -44 -81 5 -49 28 -51 28 -3 0 32 7 46 40 78 l40 39
40 -39 c30 -30 40 -47 40 -71 0 -28 -4 -33 -27 -37 -23 -3 -21 -4 10 -6 l37
-1 0 42 c0 36 -6 48 -42 85 l-42 43 27 28 c22 23 27 37 27 78 0 44 -4 54 -33
82 -18 18 -35 32 -38 32 -3 0 -19 -15 -37 -32z m88 -83 c0 -21 -9 -40 -25 -55
l-25 -23 -25 23 c-31 29 -33 77 -4 114 l22 27 28 -27 c20 -19 29 -38 29 -59z"/><path d="M2933 3393 c15 -2 37 -2 50 0 12 2 0 4 -28 4 -27 0 -38 -2 -22 -4z"/><path d="M3343 3393 c37 -2 97 -2 135 0 37 2 6 3 -68 3 -74 0 -105 -1 -67 -3z"/><path d="M2933 3333 c15 -2 37 -2 50 0 12 2 0 4 -28 4 -27 0 -38 -2 -22 -4z"/><path d="M3343 3333 c37 -2 97 -2 135 0 37 2 6 3 -68 3 -74 0 -105 -1 -67 -3z"/><path d="M2938 3273 c12 -2 32 -2 45 0 12 2 2 4 -23 4 -25 0 -35 -2 -22 -4z"/><path d="M3343 3273 c37 -2 97 -2 135 0 37 2 6 3 -68 3 -74 0 -105 -1 -67 -3z"/><path d="M2920 3220 c0 -5 18 -10 40 -10 22 0 40 5 40 10 0 6 -18 10 -40 10
-22 0 -40 -4 -40 -10z"/><path d="M3280 3220 c0 -6 48 -10 125 -10 77 0 125 4 125 10 0 6 -48 10 -125
10 -77 0 -125 -4 -125 -10z"/><path d="M2933 3163 c15 -2 37 -2 50 0 12 2 0 4 -28 4 -27 0 -38 -2 -22 -4z"/><path d="M3343 3163 c37 -2 97 -2 135 0 37 2 6 3 -68 3 -74 0 -105 -1 -67 -3z"/><path d="M3120 3130 c0 -5 5 -10 10 -10 6 0 10 5 10 10 0 6 -4 10 -10 10 -5 0
-10 -4 -10 -10z"/><path d="M2933 3103 c15 -2 37 -2 50 0 12 2 0 4 -28 4 -27 0 -38 -2 -22 -4z"/><path d="M3343 3103 c37 -2 97 -2 135 0 37 2 6 3 -68 3 -74 0 -105 -1 -67 -3z"/><path d="M3075 3080 c3 -5 10 -10 16 -10 5 0 9 5 9 10 0 6 -7 10 -16 10 -8 0
-12 -4 -9 -10z"/><path d="M3180 3080 c0 -5 4 -10 9 -10 6 0 13 5 16 10 3 6 -1 10 -9 10 -9 0
-16 -4 -16 -10z"/><path d="M2933 3043 c15 -2 37 -2 50 0 12 2 0 4 -28 4 -27 0 -38 -2 -22 -4z"/><path d="M1358 3344 c-5 -4 -8 -34 -8 -66 l0 -58 60 0 60 0 0 60 c0 50 -3 60
-17 60 -10 0 -34 3 -53 6 -19 3 -38 2 -42 -2z m80 -63 c3 -41 3 -41 -32 -41
-36 0 -36 0 -36 44 0 43 0 44 33 41 30 -2 32 -5 35 -44z"/><path d="M1390 3285 c0 -18 5 -25 20 -25 15 0 20 7 20 25 0 18 -5 25 -20 25
-15 0 -20 -7 -20 -25z"/><path d="M2532 3283 l3 -58 58 -3 57 -3 0 61 0 60 -60 0 -61 0 3 -57z m96 -1
l3 -43 -38 3 c-33 3 -38 6 -41 31 -5 46 4 59 40 55 31 -3 33 -6 36 -46z"/><path d="M2570 3285 c0 -18 5 -25 20 -25 15 0 20 7 20 25 0 18 -5 25 -20 25
-15 0 -20 -7 -20 -25z"/><path d="M2352 2929 c2 -7 10 -15 17 -17 8 -3 12 1 9 9 -2 7 -10 15 -17 17 -8
3 -12 -1 -9 -9z"/><path d="M2392 2898 c6 -18 28 -21 28 -4 0 9 -7 16 -16 16 -9 0 -14 -5 -12
-12z"/><path d="M1625 2929 c-4 -6 -5 -13 -2 -16 7 -7 27 6 27 18 0 12 -17 12 -25 -2z"/><path d="M1580 2894 c0 -17 22 -14 28 4 2 7 -3 12 -12 12 -9 0 -16 -7 -16 -16z"/><path d="M1362 2837 c-58 -61 3 -151 82 -121 27 10 18 26 -12 20 -36 -9 -64
13 -64 49 0 37 28 58 65 49 22 -5 28 -3 25 7 -3 8 -20 15 -39 17 -26 2 -40 -3
-57 -21z"/><path d="M2550 2833 c-24 -31 -22 -74 7 -105 19 -21 84 -22 91 -1 2 9 -5 11
-26 7 -34 -7 -62 16 -62 51 0 35 28 58 62 51 21 -4 28 -2 26 7 -3 6 -21 13
-40 15 -29 3 -40 -2 -58 -25z"/><path d="M1050 2775 c0 -9 5 -15 11 -13 6 2 11 8 11 13 0 5 -5 11 -11 13 -6 2
-11 -4 -11 -13z"/><path d="M2952 2781 c2 -7 7 -12 11 -12 12 1 9 15 -3 20 -7 2 -11 -2 -8 -8z"/><path d="M1970 2725 c0 -41 2 -45 24 -45 32 0 45 19 39 58 -5 28 -9 32 -34 32
-28 0 -29 -2 -29 -45z m40 25 c0 -5 -7 -10 -16 -10 -8 0 -12 5 -9 10 3 6 10
10 16 10 5 0 9 -4 9 -10z m10 -40 c0 -5 -9 -10 -21 -10 -11 0 -17 5 -14 10 3
6 13 10 21 10 8 0 14 -4 14 -10z"/><path d="M1567 2634 c-13 -13 -7 -51 9 -65 23 -19 49 1 49 37 0 24 -5 30 -25
32 -14 2 -29 0 -33 -4z m43 -35 c0 -24 -23 -21 -28 4 -2 10 3 17 12 17 10 0
16 -9 16 -21z"/><path d="M2377 2634 c-13 -13 -7 -51 9 -65 23 -19 49 1 49 37 0 24 -5 30 -25
32 -14 2 -29 0 -33 -4z m43 -34 c0 -11 -7 -20 -15 -20 -8 0 -15 9 -15 20 0 11
7 20 15 20 8 0 15 -9 15 -20z"/><path d="M1072 2581 c-8 -5 -12 -21 -10 -37 2 -21 9 -30 26 -32 12 -2 22 1 22
7 0 6 -7 11 -15 11 -8 0 -15 9 -15 20 0 11 7 20 15 20 8 0 15 5 15 10 0 12
-20 13 -38 1z"/><path d="M1875 2435 c-22 -9 -44 -20 -49 -25 -19 -19 2 -19 55 1 42 16 71 20
134 17 95 -4 165 -33 238 -97 30 -27 47 -37 47 -28 0 22 -75 83 -139 115 -46
22 -71 27 -151 29 -66 2 -107 -2 -135 -12z"/><path d="M1720 2330 c-28 -27 -50 -57 -50 -67 0 -14 8 -9 30 17 16 19 46 50
67 67 28 24 33 33 20 33 -10 0 -40 -22 -67 -50z"/><path d="M1921 2328 c-50 -34 -73 -70 -79 -123 -3 -27 -13 -56 -23 -66 -17
-17 -19 -36 -19 -159 0 -189 -10 -180 198 -180 206 0 196 -9 200 180 3 137 3
137 -22 158 -19 15 -26 29 -26 56 0 87 -56 147 -144 154 -41 3 -57 -1 -85 -20z
m111 -8 c56 -16 88 -60 88 -122 0 -65 -23 -61 -31 6 -6 60 -36 85 -96 86 -54
0 -93 -42 -93 -101 0 -28 -4 -39 -15 -39 -11 0 -15 11 -15 40 0 76 39 121 120
139 3 0 22 -4 42 -9z m12 -71 c22 -17 27 -28 24 -58 l-3 -36 -68 -3 c-77 -3
-86 5 -67 63 19 57 66 72 114 34z m121 -269 l0 -145 -165 0 -165 0 -3 134 c-1
74 0 141 2 148 4 11 40 13 168 11 l163 -3 0 -145z"/><path d="M2117 2083 c-4 -3 -7 -51 -7 -105 l0 -99 -112 3 -113 3 -3 98 c-4
135 -22 124 -22 -13 l0 -110 135 0 135 0 0 115 c0 63 -1 115 -3 115 -2 0 -7
-3 -10 -7z"/><path d="M1966 2064 c-18 -18 -21 -60 -5 -70 10 -6 7 -30 -7 -68 -5 -13 2 -16
41 -16 l47 0 -6 44 c-4 27 -3 47 4 51 17 11 11 43 -12 59 -28 20 -43 20 -62 0z
m54 -34 c0 -13 -7 -20 -18 -20 -24 0 -32 8 -25 26 8 22 43 17 43 -6z m-10 -76
c0 -8 -4 -14 -10 -14 -5 0 -10 9 -10 21 0 11 5 17 10 14 6 -3 10 -13 10 -21z"/><path d="M2310 2265 c0 -8 5 -15 10 -15 6 0 10 7 10 15 0 8 -4 15 -10 15 -5 0
-10 -7 -10 -15z"/><path d="M1645 2229 c-10 -15 3 -25 16 -12 7 7 7 13 1 17 -6 3 -14 1 -17 -5z"/><path d="M2336 2232 c-3 -6 -1 -14 5 -17 15 -10 25 3 12 16 -7 7 -13 7 -17 1z"/><path d="M1619 2164 c-25 -68 -19 -216 11 -264 17 -27 19 -6 4 50 -18 68 -18
121 0 188 14 54 3 72 -15 26z"/><path d="M2354 2174 c28 -72 28 -165 0 -261 -3 -13 -2 -23 3 -23 12 0 33 67
39 128 6 58 -16 164 -35 170 -10 3 -12 0 -7 -14z"/><path d="M2307 1831 c-20 -28 -59 -67 -87 -87 -55 -40 -67 -63 -19 -39 42 22
104 80 130 121 34 56 16 61 -24 5z"/><path d="M1650 1862 c0 -19 61 -92 105 -126 87 -66 211 -96 315 -76 52 10 79
24 68 35 -3 3 -18 0 -34 -6 -50 -19 -172 -14 -237 11 -67 25 -142 82 -177 133
-24 35 -40 47 -40 29z"/><path d="M1379 2371 c-23 -8 -9 -35 19 -38 25 -3 27 4 9 28 -7 9 -19 13 -28
10z"/><path d="M2594 2375 c3 -8 -2 -19 -12 -24 -16 -10 -16 -10 0 -11 9 0 23 -3 31
-6 18 -7 18 25 0 44 -16 16 -26 15 -19 -3z"/><path d="M3190 2294 c-50 -17 -85 -23 -107 -19 -52 9 -73 -8 -73 -59 0 -25
-11 -68 -25 -100 -34 -77 -34 -156 1 -233 18 -41 24 -69 21 -96 -5 -37 10 -66
36 -68 7 -1 32 -2 57 -3 25 -1 73 -15 107 -29 l62 -27 82 30 c47 17 103 30
129 30 58 0 70 12 70 71 0 26 9 66 20 90 14 31 20 66 20 119 0 53 -6 88 -20
119 -11 24 -20 65 -20 92 0 43 -3 51 -24 59 -13 5 -37 5 -53 1 -20 -6 -49 0
-106 21 -43 15 -83 28 -90 28 -7 0 -46 -12 -87 -26z m130 -10 c47 -19 53 -45
13 -64 -58 -27 -137 -8 -131 32 3 18 19 29 75 47 2 1 21 -6 43 -15z m-140 -42
c0 -27 -100 -119 -137 -127 -36 -7 -41 1 -19 31 10 13 13 33 9 63 l-6 44 54
-7 c31 -3 60 -2 69 4 22 14 30 12 30 -8z m290 3 l55 0 -3 -37 c-2 -20 4 -50
12 -66 l16 -30 -38 10 c-43 12 -64 28 -103 82 -33 45 -37 62 -11 50 9 -4 42
-8 72 -9z m-253 -54 c-2 -3 -11 -23 -20 -43 -20 -45 -37 -49 -37 -10 0 36 26
73 46 65 8 -3 13 -8 11 -12z m169 2 c16 -21 18 -79 4 -88 -6 -3 -13 2 -16 12
-3 10 -12 31 -20 46 -22 43 4 67 32 30z m-61 -38 c24 -23 34 -55 17 -55 -5 0
-14 12 -20 26 -10 21 -18 25 -45 22 -22 -2 -35 -10 -42 -25 -12 -27 -25 -30
-25 -6 0 25 40 63 67 63 13 0 35 -11 48 -25z m129 -47 c-8 -12 -34 11 -34 30
0 13 3 12 20 -3 11 -10 17 -22 14 -27z m-314 23 c0 -13 -29 -35 -37 -28 -7 8
15 37 28 37 5 0 9 -4 9 -9z m155 -11 c3 -6 -1 -13 -10 -16 -19 -8 -30 0 -20
15 8 14 22 14 30 1z m-153 -76 c-9 -15 -10 -15 -17 5 -4 13 -1 28 7 38 12 15
13 14 16 -5 2 -12 -1 -29 -6 -38z m419 34 c5 -7 9 -43 9 -81 0 -64 -1 -68 -27
-78 -59 -23 -76 -17 -92 28 -14 38 -13 47 3 99 l18 56 40 -5 c23 -3 45 -11 49
-19z m-456 -38 c15 -46 15 -53 0 -100 l-16 -49 -47 17 -47 18 -3 68 c-4 91 -1
96 52 96 l44 0 17 -50z m329 42 c3 -5 2 -19 -1 -31 -4 -17 -8 -19 -14 -9 -12
18 -11 48 0 48 6 0 12 -4 15 -8z m-19 -109 c20 -60 39 -114 42 -120 4 -10 -35
-13 -176 -13 -100 0 -181 2 -181 4 0 2 16 51 35 108 20 56 38 109 40 116 3 8
33 12 104 12 l99 0 37 -107z m121 -112 c-10 -18 -15 -49 -14 -73 l3 -43 -50 0
c-27 0 -60 -4 -72 -8 -16 -6 -23 -4 -23 4 0 18 54 65 83 73 23 5 26 10 21 31
-5 21 -1 27 27 39 19 8 35 13 37 11 2 -2 -4 -17 -12 -34z m-482 18 c18 -8 24
-19 23 -37 -2 -19 4 -27 18 -30 11 -2 32 -16 48 -30 31 -29 37 -59 10 -46 -10
4 -40 8 -68 8 l-50 1 0 45 c0 25 -6 55 -13 67 -20 37 -13 42 32 22z m179 -70
c-15 -15 -75 -17 -80 -1 -3 8 9 12 43 12 35 0 45 -3 37 -11z m163 -8 c-15 -17
-22 -18 -44 -8 -49 20 -47 27 8 27 52 0 53 0 36 -19z m-76 -17 c35 -14 41 -21
38 -41 -4 -38 -66 -60 -119 -44 -34 10 -39 16 -39 41 0 21 7 33 28 43 36 20
45 20 92 1z"/><path d="M3249 2029 c-14 -14 -18 -26 -13 -37 4 -9 7 -34 6 -54 -2 -37 -1 -38
36 -38 l38 0 -1 65 c0 47 -4 68 -15 75 -21 14 -28 12 -51 -11z m46 -29 c0 -22
-29 -18 -33 3 -3 14 1 18 15 15 10 -2 18 -10 18 -18z m-5 -66 c0 -8 -4 -14
-10 -14 -5 0 -10 9 -10 21 0 11 5 17 10 14 6 -3 10 -13 10 -21z"/><path d="M1306 2044 c-27 -27 -12 -64 26 -64 15 0 38 27 38 44 0 8 -31 36 -40
36 -5 0 -16 -7 -24 -16z m41 -20 c1 -5 -2 -16 -7 -24 -12 -20 -35 2 -26 25 6
17 27 16 33 -1z"/><path d="M2646 2044 c-27 -27 -16 -64 20 -64 38 0 52 51 20 72 -16 11 -23 10
-40 -8z m34 -29 c0 -26 -14 -33 -25 -15 -9 14 1 40 15 40 5 0 10 -11 10 -25z"/><path d="M1378 1699 c9 -22 27 -27 27 -6 0 6 5 15 10 19 6 4 -2 8 -17 8 -24 0
-26 -3 -20 -21z"/><path d="M2597 1723 c-4 -3 -7 -14 -7 -24 0 -12 6 -16 20 -12 22 6 22 6 14 27
-7 17 -16 20 -27 9z"/><path d="M2373 1483 c-3 -10 -8 -21 -10 -25 -2 -4 6 -17 17 -28 27 -27 60 -12
60 29 0 40 -54 59 -67 24z m45 -25 c-5 -32 -28 -35 -28 -4 0 17 5 26 16 26 10
0 14 -7 12 -22z"/><path d="M1570 1486 c-6 -8 -10 -25 -8 -38 2 -18 9 -23 33 -23 24 0 31 5 33
23 4 25 -13 52 -33 52 -7 0 -18 -7 -25 -14z m38 -28 c-5 -32 -28 -35 -28 -4 0
17 5 26 16 26 10 0 14 -7 12 -22z"/><path d="M2933 1502 c-35 -23 -14 -93 23 -78 18 7 17 9 -4 17 -24 9 -28 44 -5
44 6 0 14 3 18 6 9 9 -20 18 -32 11z"/><path d="M1980 1380 c-16 -10 -26 -90 -11 -90 6 0 11 7 11 15 0 8 6 15 14 15
8 0 16 -7 20 -15 3 -8 10 -15 16 -15 7 0 8 6 1 18 -7 13 -7 22 0 29 23 23 -22
61 -51 43z m33 -25 c1 -5 -6 -11 -15 -13 -11 -2 -18 3 -18 13 0 17 30 18 33 0z"/><path d="M1367 1322 c-58 -63 -1 -156 77 -126 27 10 18 27 -11 21 -40 -7 -63
8 -63 43 0 37 26 63 57 57 15 -3 23 1 23 9 0 21 -64 18 -83 -4z"/><path d="M2549 1313 c0 -16 -1 -48 -2 -73 -2 -42 0 -45 26 -48 51 -6 103 51
67 73 -6 4 -8 16 -5 26 9 29 -12 49 -51 49 -30 0 -34 -3 -35 -27z m61 -13 c0
-13 -7 -20 -20 -20 -13 0 -20 7 -20 20 0 13 7 20 20 20 13 0 20 -7 20 -20z m8
-62 c3 -13 -3 -18 -22 -18 -20 0 -26 5 -26 21 0 15 5 20 22 17 13 -2 24 -11
26 -20z"/><path d="M2385 1149 c-4 -6 -4 -13 -1 -16 8 -8 36 5 36 17 0 13 -27 13 -35 -1z"/><path d="M1050 1225 c0 -9 5 -15 11 -13 6 2 11 8 11 13 0 5 -5 11 -11 13 -6 2
-11 -4 -11 -13z"/><path d="M2950 1224 c0 -9 5 -14 12 -12 18 6 21 28 4 28 -9 0 -16 -7 -16 -16z"/><path d="M1832 847 c-17 -18 -19 -24 -8 -24 8 0 13 4 10 8 -2 4 6 15 18 23 12
9 18 16 12 16 -6 0 -20 -10 -32 -23z"/><path d="M2167 853 c-4 -3 0 -15 9 -25 14 -15 15 -20 3 -35 -13 -16 -12 -17 4
-4 9 7 17 10 17 5 0 -5 5 -2 10 6 9 13 10 13 11 0 1 -8 2 -19 4 -25 1 -5 3
-17 4 -25 1 -9 8 -4 17 13 12 23 18 26 30 16 9 -7 14 -8 14 -1 0 12 -18 25
-38 28 -8 2 -11 -3 -9 -10 3 -7 1 -19 -4 -27 -5 -9 -7 -4 -5 16 1 17 8 29 14
28 18 -4 15 12 -5 28 -11 10 -14 10 -9 2 16 -28 -7 -34 -33 -9 -15 15 -30 23
-34 19z m28 -23 c10 -11 16 -20 13 -20 -3 0 -13 9 -23 20 -10 11 -16 20 -13
20 3 0 13 -9 23 -20z"/><path d="M2063 837 c0 -10 10 -14 31 -12 17 1 40 -5 51 -14 19 -15 19 -15 3 4
-10 10 -25 20 -35 21 -10 1 -25 4 -34 8 -10 4 -16 2 -16 -7z"/><path d="M1900 817 l-25 -10 23 -5 c26 -4 36 1 31 16 -3 6 -14 5 -29 -1z"/><path d="M1867 733 c-11 -10 -8 -20 8 -27 10 -4 15 1 15 14 0 20 -11 26 -23
13z"/><path d="M2150 545 c-8 -9 -30 -25 -49 -35 -20 -11 -30 -19 -23 -20 30 -1 103
52 90 65 -3 3 -11 -2 -18 -10z"/><path d="M2189 553 c-1 -5 -1 -11 0 -15 0 -5 -3 -7 -7 -5 -13 3 -67 -47 -67
-62 0 -8 6 -16 13 -19 7 -2 11 2 10 10 -2 7 4 13 12 13 8 0 21 4 28 8 6 5 16
6 21 3 5 -3 14 0 20 8 9 10 8 15 -3 19 -9 4 -13 15 -11 27 2 11 0 20 -6 20 -5
0 -10 -3 -10 -7z m13 -44 c2 -2 1 -3 -1 -1 -2 1 -13 -6 -24 -15 -11 -10 -17
-12 -13 -5 8 13 -4 16 -20 5 -5 -5 -1 -1 8 9 16 15 43 19 50 7z"/><path d="M2222 487 c-13 -14 -19 -27 -15 -30 11 -7 45 31 41 44 -2 6 -14 -1
-26 -14z"/><path d="M1910 491 c0 -6 5 -13 10 -16 6 -3 10 1 10 9 0 9 -4 16 -10 16 -5 0
-10 -4 -10 -9z"/><path d="M1878 483 c7 -3 16 -2 19 1 4 3 -2 6 -13 5 -11 0 -14 -3 -6 -6z"/><path d="M2563 798 c2 -7 10 -13 17 -13 7 0 15 6 18 13 2 7 -5 12 -18 12 -13
0 -20 -5 -17 -12z"/><path d="M1405 810 c-10 -17 12 -37 25 -24 8 8 6 15 -4 23 -10 9 -16 9 -21 1z"/><path d="M1571 700 c-19 -11 -9 -45 14 -45 13 0 21 8 23 21 3 23 -17 37 -37
24z"/><path d="M2393 703 c-18 -7 -16 -42 3 -50 8 -3 23 1 31 10 13 13 14 19 3 31
-13 17 -17 18 -37 9z"/><path d="M2180 676 c0 -2 8 -10 18 -17 15 -13 16 -12 3 4 -13 16 -21 21 -21
13z"/><path d="M1800 486 c0 -2 8 -10 18 -17 15 -13 16 -12 3 4 -13 16 -21 21 -21
13z"/><path d="M770 3729 c0 -5 5 -7 10 -4 6 3 10 8 10 11 0 2 -4 4 -10 4 -5 0 -10
-5 -10 -11z"/><path d="M3232 2809 c2 -6 8 -10 13 -10 5 0 11 4 13 10 2 6 -4 11 -13 11 -9 0
-15 -5 -13 -11z"/><path d="M766 2803 c-11 -11 -6 -23 9 -23 8 0 15 4 15 9 0 13 -16 22 -24 14z"/><path d="M3522 2788 c-6 -6 -12 -19 -12 -27 0 -9 -27 -33 -60 -55 -33 -21 -60
-42 -60 -47 0 -16 13 -10 74 30 32 22 65 37 72 34 19 -7 18 -87 -1 -103 -18
-15 -20 -51 -3 -68 19 -19 46 -14 63 12 17 25 12 51 -11 60 -17 7 -20 96 -3
113 6 6 9 21 7 34 -3 27 -45 38 -66 17z m43 -19 c10 -15 -1 -23 -20 -15 -9 3
-13 10 -10 16 8 13 22 13 30 -1z m13 -182 c2 -12 -3 -17 -17 -17 -12 0 -21 6
-21 13 0 31 32 34 38 4z"/><path d="M466 2744 c-9 -8 -16 -19 -16 -24 0 -14 30 -40 46 -40 8 0 42 -20 76
-45 34 -25 66 -45 70 -45 22 0 2 23 -52 60 -44 30 -60 47 -60 63 0 43 -35 60
-64 31z m44 -25 c0 -5 -7 -9 -15 -9 -15 0 -20 12 -9 23 8 8 24 -1 24 -14z"/><path d="M762 2739 c2 -6 8 -10 13 -10 5 0 11 4 13 10 2 6 -4 11 -13 11 -9 0
-15 -5 -13 -11z"/><path d="M3210 2722 c-24 -12 -38 -28 -46 -52 -6 -19 -16 -36 -23 -38 -7 -2
-11 -33 -11 -83 l0 -79 115 0 c85 0 115 3 116 13 8 118 -24 217 -77 242 -39
18 -32 18 -74 -3z m82 -29 c10 -9 18 -28 18 -42 -1 -25 -1 -24 -15 7 -13 29
-19 33 -47 30 -23 -2 -36 -10 -43 -25 -9 -21 -25 -32 -25 -17 0 11 23 49 34
56 19 13 59 9 78 -9z m-24 -46 c2 -11 -3 -17 -17 -17 -23 0 -35 15 -26 31 10
15 39 6 43 -14z m72 -92 l0 -55 -95 0 -95 0 0 55 0 55 95 0 95 0 0 -55z"/><path d="M3160 2555 c0 -25 5 -45 10 -45 6 0 10 20 10 45 0 25 -4 45 -10 45
-5 0 -10 -20 -10 -45z"/><path d="M3237 2593 c-3 -5 -5 -25 -5 -45 0 -31 4 -38 20 -38 13 0 18 6 16 18
-1 9 1 23 6 30 4 7 3 19 -4 27 -14 16 -26 19 -33 8z"/><path d="M728 2675 c-32 -18 -48 -44 -48 -78 0 -16 -7 -26 -20 -30 -18 -5 -20
-14 -20 -80 l0 -76 116 -3 c64 -2 119 1 125 7 10 10 13 114 3 139 -3 9 -12 16
-20 16 -9 0 -14 11 -14 33 0 61 -69 101 -122 72z m82 -35 c21 -21 28 -70 10
-70 -5 0 -10 10 -10 23 0 29 -18 47 -45 47 -27 0 -45 -18 -45 -47 0 -13 -4
-23 -10 -23 -18 0 -11 49 10 70 11 11 31 20 45 20 14 0 34 -9 45 -20z m-22
-48 c3 -18 -1 -22 -22 -22 -19 0 -26 5 -26 18 0 39 43 43 48 4z m72 -102 l0
-61 -97 3 -98 3 -3 44 c-5 70 -4 71 103 71 l95 0 0 -60z"/><path d="M677 2533 c-11 -10 -8 -81 3 -88 6 -4 10 13 10 44 0 52 -1 56 -13 44z"/><path d="M836 2527 c-5 -9 -5 -34 0 -55 7 -34 8 -35 12 -9 2 15 2 39 0 55 -4
22 -6 24 -12 9z"/><path d="M749 2528 c-1 -2 -2 -20 -3 -40 -3 -34 0 -38 20 -38 20 0 23 4 20 37
-1 27 -7 39 -19 41 -9 2 -17 2 -18 0z"/><path d="M2920 2575 c-10 -12 -10 -21 -2 -40 12 -25 36 -33 47 -15 3 6 -1 10
-9 10 -23 0 -31 22 -13 35 10 7 17 15 17 19 0 12 -28 6 -40 -9z"/><path d="M430 2540 c-17 -17 -18 -24 -10 -41 16 -29 38 -34 60 -14 25 22 25
37 2 58 -24 22 -28 21 -52 -3z m40 -25 c0 -8 -7 -15 -15 -15 -8 0 -15 7 -15
15 0 8 7 15 15 15 8 0 15 -7 15 -15z"/><path d="M3550 2495 c0 -8 5 -15 10 -15 6 0 10 7 10 15 0 8 -4 15 -10 15 -5 0
-10 -7 -10 -15z"/><path d="M3550 2455 c0 -8 5 -15 10 -15 6 0 10 7 10 15 0 8 -4 15 -10 15 -5 0
-10 -7 -10 -15z"/><path d="M430 2430 c0 -5 7 -10 15 -10 8 0 15 5 15 10 0 6 -7 10 -15 10 -8 0
-15 -4 -15 -10z"/><path d="M3237 2424 c-8 -8 1 -24 14 -24 5 0 9 7 9 15 0 15 -12 20 -23 9z"/><path d="M610 2293 c-120 -63 -146 -80 -151 -102 -3 -14 -23 -64 -43 -112
l-38 -85 41 -98 c23 -54 41 -109 41 -121 0 -19 25 -36 150 -104 83 -44 153
-81 156 -81 3 0 36 17 72 39 37 21 104 57 150 81 68 35 82 46 82 66 0 13 9 46
20 74 11 27 29 72 39 98 l19 48 -39 94 c-21 51 -39 100 -39 109 0 11 -50 42
-153 94 -85 42 -156 77 -158 76 -2 0 -69 -34 -149 -76z m128 -13 c-11 -25 -68
-61 -68 -43 0 3 17 26 37 51 39 47 54 43 31 -8z m113 -32 c8 -15 6 -16 -18 -7
-28 9 -53 48 -53 78 1 16 51 -35 71 -71z m-195 9 c-21 -28 -36 -36 -72 -42
-41 -6 -65 -2 -53 9 10 9 144 74 148 71 1 -2 -9 -19 -23 -38z m344 -41 c0 -5
-21 -6 -47 -2 -37 4 -54 13 -75 38 -16 18 -28 36 -28 40 0 4 34 -9 75 -29 41
-21 75 -42 75 -47z m-220 49 c0 -8 -7 -15 -15 -15 -8 0 -15 7 -15 15 0 8 7 15
15 15 8 0 15 -7 15 -15z m73 -55 c23 -7 51 -35 96 -95 68 -91 73 -115 22 -115
-16 0 -33 -4 -36 -10 -4 -6 8 -10 28 -10 21 0 37 -6 40 -14 3 -8 -21 -51 -54
-98 -43 -60 -68 -86 -91 -94 -77 -26 -75 -26 -81 2 -3 20 0 28 14 31 10 3 16
9 13 14 -7 12 -71 11 -79 -1 -3 -5 1 -10 9 -10 11 0 16 -9 16 -30 0 -16 -3
-30 -7 -30 -22 0 -113 36 -117 46 -3 7 -28 44 -56 82 -55 77 -57 102 -9 102
40 0 37 18 -3 22 -52 5 -46 33 25 122 50 64 70 82 102 91 45 14 120 12 168 -5z
m-343 -11 c0 -5 -7 -9 -15 -9 -15 0 -20 12 -9 23 8 8 24 -1 24 -14z m540 0 c0
-5 -7 -9 -15 -9 -15 0 -20 12 -9 23 8 8 24 -1 24 -14z m-450 -14 c0 -3 -18
-28 -40 -56 l-40 -51 0 50 c0 31 5 52 13 55 17 7 67 8 67 2z m398 -4 c9 -5 12
-24 10 -55 l-3 -47 -43 56 -43 55 33 0 c18 0 39 -4 46 -9z m-513 -148 c-10
-15 -25 -23 -45 -23 l-29 0 20 48 c11 26 28 63 36 82 l16 35 8 -59 c7 -47 6
-65 -6 -83z m601 54 l32 -72 -25 -3 c-42 -6 -63 23 -63 88 0 53 7 77 19 65 2
-3 19 -38 37 -78z m-614 -129 c16 -16 18 -31 16 -91 l-3 -72 -37 93 c-21 50
-38 94 -38 96 0 10 45 -9 62 -26z m38 22 c0 -5 -7 -10 -15 -10 -8 0 -15 5 -15
10 0 6 7 10 15 10 8 0 15 -4 15 -10z m535 0 c-3 -5 -10 -10 -16 -10 -5 0 -9 5
-9 10 0 6 7 10 16 10 8 0 12 -4 9 -10z m37 -85 c-19 -47 -39 -85 -45 -85 -5 0
-8 27 -5 64 4 72 25 106 63 106 23 0 23 -1 -13 -85z m-82 -99 c-8 -8 -11 -7
-8 4 2 8 -3 15 -9 15 -7 0 -13 -4 -12 -9 1 -9 -20 -26 -33 -26 -16 0 -7 24 30
76 l37 53 3 -51 c2 -29 -2 -56 -8 -62z m-431 47 c23 -31 39 -58 37 -60 -8 -8
-55 9 -53 19 1 6 -4 13 -12 16 -10 3 -12 0 -8 -12 4 -9 2 -16 -3 -16 -6 0 -10
25 -10 55 0 30 2 55 4 55 3 0 23 -25 45 -57z m-61 -74 c-2 -6 -8 -10 -13 -10
-5 0 -11 4 -13 10 -2 6 4 11 13 11 9 0 15 -5 13 -11z m542 1 c0 -5 -7 -10 -15
-10 -8 0 -15 5 -15 10 0 6 7 10 15 10 8 0 15 -4 15 -10z m-387 -67 l39 -54
-84 45 c-99 54 -110 73 -41 68 45 -4 50 -7 86 -59z m334 52 c1 -5 -35 -31 -82
-57 -87 -47 -90 -45 -40 22 30 42 112 65 122 35z m-298 -16 c23 -8 31 -17 31
-35 0 -13 5 -24 10 -24 6 0 10 -12 10 -27 l-1 -28 -29 35 c-30 37 -64 90 -57
90 2 0 18 -5 36 -11z m161 4 c0 -5 -18 -33 -40 -63 -36 -50 -40 -52 -40 -28 0
15 5 30 11 34 6 3 9 15 6 25 -3 13 3 21 22 28 33 12 41 13 41 4z m-82 -34 c-2
-6 -8 -10 -13 -10 -5 0 -11 4 -13 10 -2 6 4 11 13 11 9 0 15 -5 13 -11z"/><path d="M755 2200 c-4 -6 -3 -16 3 -22 6 -6 12 -6 17 2 4 6 3 16 -3 22 -6 6
-12 6 -17 -2z"/><path d="M712 2120 c-12 -12 -22 -31 -22 -44 0 -13 -7 -27 -15 -30 -13 -5 -15
-21 -13 -83 l3 -78 88 -8 c64 -6 93 -5 103 4 21 17 20 157 -1 165 -8 4 -15 15
-15 26 0 29 -45 68 -78 68 -15 0 -38 -9 -50 -20z m88 -20 c21 -21 24 -32 13
-43 -3 -4 -11 3 -17 16 -16 30 -60 30 -64 0 -4 -26 -22 -31 -22 -6 0 23 29 53
52 53 10 0 27 -9 38 -20z m-26 -41 c-3 -5 -10 -7 -15 -3 -5 3 -7 10 -3 15 3 5
10 7 15 3 5 -3 7 -10 3 -15z m66 -94 l0 -65 -75 0 -75 0 0 65 0 65 75 0 75 0
0 -65z"/><path d="M746 1991 c-10 -15 6 -71 19 -71 13 0 29 56 19 71 -3 5 -11 9 -19 9
-8 0 -16 -4 -19 -9z"/><path d="M630 2105 c0 -9 5 -15 11 -13 6 2 11 8 11 13 0 5 -5 11 -11 13 -6 2
-11 -4 -11 -13z"/><path d="M872 2109 c2 -6 8 -10 13 -10 5 0 11 4 13 10 2 6 -4 11 -13 11 -9 0
-15 -5 -13 -11z"/><path d="M590 2050 c0 -5 7 -10 15 -10 8 0 15 5 15 10 0 6 -7 10 -15 10 -8 0
-15 -4 -15 -10z"/><path d="M910 2050 c0 -5 7 -10 16 -10 8 0 12 5 9 10 -3 6 -10 10 -16 10 -5 0
-9 -4 -9 -10z"/><path d="M617 1994 c-8 -8 1 -24 14 -24 5 0 9 7 9 15 0 15 -12 20 -23 9z"/><path d="M880 1990 c0 -5 7 -10 15 -10 8 0 15 5 15 10 0 6 -7 10 -15 10 -8 0
-15 -4 -15 -10z"/><path d="M600 1925 c0 -9 5 -15 11 -13 6 2 11 8 11 13 0 5 -5 11 -11 13 -6 2
-11 -4 -11 -13z"/><path d="M906 1932 c-3 -6 -1 -14 5 -17 15 -10 25 3 12 16 -7 7 -13 7 -17 1z"/><path d="M506 2293 c-11 -11 -6 -23 9 -23 8 0 15 4 15 9 0 13 -16 22 -24 14z"/><path d="M1002 2279 c2 -6 8 -10 13 -10 5 0 11 4 13 10 2 6 -4 11 -13 11 -9 0
-15 -5 -13 -11z"/><path d="M507 1694 c-8 -8 1 -24 14 -24 5 0 9 7 9 15 0 15 -12 20 -23 9z"/><path d="M1002 1689 c2 -6 8 -10 13 -10 5 0 11 4 13 10 2 6 -4 11 -13 11 -9 0
-15 -5 -13 -11z"/><path d="M3235 1561 c-6 -11 9 -23 19 -14 9 9 7 23 -3 23 -6 0 -12 -4 -16 -9z"/><path d="M3536 1534 c-9 -8 -16 -21 -16 -29 0 -7 -30 -32 -67 -55 -83 -52 -66
-66 18 -16 33 20 65 36 70 36 16 0 11 -136 -6 -150 -31 -26 -11 -70 32 -70 33
0 49 35 29 65 -18 27 -23 155 -6 155 5 0 12 11 16 25 12 47 -36 73 -70 39z
m54 -25 c0 -12 -29 -24 -37 -16 -3 4 -3 13 0 21 6 16 37 11 37 -5z m-10 -213
c0 -8 -4 -17 -8 -20 -13 -8 -35 11 -28 23 10 16 36 14 36 -3z"/><path d="M3213 1495 c-34 -14 -53 -41 -53 -74 0 -11 -7 -24 -15 -29 -13 -7
-15 -24 -13 -88 l3 -79 115 0 115 0 3 83 c2 68 0 82 -13 82 -9 0 -15 9 -15 26
0 38 -18 64 -55 80 -40 16 -32 17 -72 -1z m84 -37 c23 -22 31 -58 13 -58 -5 0
-10 8 -10 18 0 25 -20 42 -50 42 -30 0 -50 -16 -50 -41 0 -10 -4 -21 -10 -24
-19 -12 -10 45 10 65 26 26 68 25 97 -2z m-19 -45 c3 -20 -1 -23 -27 -23 -23
0 -31 5 -31 18 0 25 10 33 35 30 12 -2 21 -12 23 -25z m70 -100 l-3 -58 -97
-3 -98 -3 0 61 0 60 100 0 101 0 -3 -57z"/><path d="M3160 1310 c0 -27 5 -50 10 -50 6 0 10 23 10 50 0 28 -4 50 -10 50
-5 0 -10 -22 -10 -50z"/><path d="M3320 1310 c0 -29 3 -50 7 -46 7 7 5 87 -3 95 -2 2 -4 -20 -4 -49z"/><path d="M3243 1343 c9 -2 23 -2 30 0 6 3 -1 5 -18 5 -16 0 -22 -2 -12 -5z"/><path d="M3248 1323 c7 -3 16 -2 19 1 4 3 -2 6 -13 5 -11 0 -14 -3 -6 -6z"/><path d="M3230 1286 c0 -19 5 -24 20 -23 21 1 29 17 9 17 -8 0 -8 5 1 15 10
13 9 15 -9 15 -16 0 -21 -6 -21 -24z"/><path d="M572 1350 c-35 -32 -73 -60 -85 -62 -17 -2 -22 -10 -22 -33 0 -27 3
-30 30 -30 25 0 31 4 33 27 2 19 24 46 68 86 35 33 64 62 64 66 0 18 -32 -1
-88 -54z m-64 -91 c-2 -6 -8 -10 -13 -10 -5 0 -11 4 -13 10 -2 6 4 11 13 11 9
0 15 -5 13 -11z"/><path d="M760 1255 c0 -8 5 -15 10 -15 6 0 10 7 10 15 0 8 -4 15 -10 15 -5 0
-10 -7 -10 -15z"/><path d="M3555 1219 c-10 -15 3 -25 16 -12 7 7 7 13 1 17 -6 3 -14 1 -17 -5z"/><path d="M760 1186 c0 -18 -7 -39 -15 -46 -19 -16 -19 -44 1 -60 9 -8 14 -25
12 -44 l-3 -31 -168 3 c-175 4 -230 -5 -242 -36 -4 -9 -6 -152 -6 -317 1 -291
2 -300 22 -317 19 -16 45 -18 214 -18 145 0 195 -3 199 -12 5 -11 7 -11 12 0
4 9 54 12 198 12 180 0 195 1 220 21 l26 20 0 186 0 185 25 -6 c18 -5 25 -2
25 9 0 9 -9 15 -25 15 l-25 0 0 108 c0 157 16 147 -237 147 l-208 0 -3 31 c-2
19 3 36 12 44 20 16 20 44 1 60 -8 7 -15 28 -15 46 0 19 -4 34 -10 34 -5 0
-10 -15 -10 -34z m20 -82 c0 -9 -5 -14 -12 -12 -18 6 -21 28 -4 28 9 0 16 -7
16 -16z m420 -144 c7 -14 10 -115 8 -306 -3 -240 -5 -286 -18 -294 -9 -6 -176
-9 -420 -7 l-405 2 -3 300 c-1 165 0 305 3 312 3 10 94 13 414 13 401 0 411 0
421 -20z"/><path d="M386 934 c-8 -21 1 -34 24 -34 22 0 33 23 17 39 -16 16 -34 14 -41
-5z"/><path d="M464 933 c-16 -51 -26 -64 -51 -69 l-28 -5 3 -195 c3 -179 4 -194 21
-194 25 0 51 -32 51 -63 0 -17 5 -27 15 -27 37 0 7 80 -40 106 l-32 17 -2 156
c-1 86 2 161 6 167 5 6 18 16 30 23 24 12 66 84 56 95 -11 11 -24 6 -29 -11z"/><path d="M1015 940 l-60 -7 55 -2 c51 -1 56 -4 70 -34 8 -18 29 -39 47 -47
l33 -15 0 -166 0 -167 -28 -11 c-29 -12 -62 -57 -62 -84 0 -9 -10 -18 -22 -20
-14 -3 -9 -5 15 -6 34 -1 37 1 37 27 0 31 23 58 54 63 17 4 18 17 20 196 1
167 -1 193 -14 193 -30 0 -60 30 -60 61 0 17 -5 28 -12 27 -7 -1 -40 -4 -73
-8z"/><path d="M1127 937 c-8 -21 8 -39 29 -35 27 5 25 42 -2 46 -12 2 -24 -3 -27
-11z"/><path d="M689 860 c-21 -11 -53 -38 -72 -60 -68 -79 -73 -180 -13 -267 91
-132 281 -125 363 14 59 100 27 237 -69 300 -55 37 -155 43 -209 13z m166 -19
c77 -36 115 -95 115 -181 0 -86 -38 -145 -115 -181 -125 -58 -265 38 -265 181
0 142 141 238 265 181z"/><path d="M734 725 c-11 -16 -15 -38 -11 -62 3 -28 -1 -44 -15 -59 -10 -12 -21
-38 -25 -58 l-6 -36 108 0 c94 0 106 2 101 16 -3 9 -6 22 -6 29 0 7 -10 26
-23 42 -19 22 -23 37 -19 71 3 32 0 48 -13 62 -26 28 -71 26 -91 -5z m80 -17
c14 -23 -4 -72 -29 -76 -38 -8 -59 53 -29 83 20 19 43 16 58 -7z m27 -129 c33
-33 19 -44 -57 -44 -60 0 -69 2 -72 19 -9 45 90 64 129 25z"/><path d="M1078 753 c6 -2 18 -2 25 0 6 3 1 5 -13 5 -14 0 -19 -2 -12 -5z"/><path d="M446 674 c-7 -19 10 -44 29 -44 19 0 36 25 29 44 -3 9 -16 16 -29 16
-13 0 -26 -7 -29 -16z m44 -8 c0 -8 -4 -17 -9 -21 -12 -7 -24 12 -16 25 9 15
25 12 25 -4z"/><path d="M1056 674 c-8 -21 11 -44 35 -44 19 0 35 33 24 50 -10 16 -52 12 -59
-6z m42 -11 c-4 -22 -22 -20 -26 1 -2 10 3 16 13 16 10 0 15 -7 13 -17z"/><path d="M1058 593 c12 -2 32 -2 45 0 12 2 2 4 -23 4 -25 0 -35 -2 -22 -4z"/><path d="M548 473 c6 -2 18 -2 25 0 6 3 1 5 -13 5 -14 0 -19 -2 -12 -5z"/><path d="M538 443 c7 -3 16 -2 19 1 4 3 -2 6 -13 5 -11 0 -14 -3 -6 -6z"/><path d="M578 443 c7 -3 16 -2 19 1 4 3 -2 6 -13 5 -11 0 -14 -3 -6 -6z"/><path d="M394 426 c-8 -22 3 -49 19 -43 6 2 12 14 12 27 0 27 -22 39 -31 16z"/><path d="M1131 422 c-7 -13 -6 -23 1 -30 28 -28 63 3 38 33 -16 20 -27 19 -39
-3z"/><path d="M3232 1168 c6 -18 28 -21 28 -4 0 9 -7 16 -16 16 -9 0 -14 -5 -12
-12z"/><path d="M3233 1093 l2 -28 -216 -5 c-161 -4 -220 -8 -232 -19 -14 -11 -17
-38 -19 -155 -3 -117 -6 -141 -18 -142 -8 -1 -21 -2 -29 -3 -22 -2 -2 -16 22
-16 22 0 22 -4 27 -188 5 -172 7 -190 24 -203 16 -11 64 -14 228 -14 l209 0 6
-30 c3 -16 10 -30 15 -30 6 0 8 7 4 15 -3 8 -3 22 0 30 5 13 36 15 189 15 159
0 186 2 204 17 22 18 22 22 22 353 0 331 0 335 -22 353 -18 15 -45 17 -205 17
-191 0 -189 -1 -185 43 1 9 -4 17 -13 17 -10 0 -14 -9 -13 -27z m405 -75 c17
-17 17 -639 0 -656 -9 -9 -116 -12 -420 -12 -392 0 -408 1 -418 19 -15 29 -14
633 2 649 17 17 819 17 836 0z"/><path d="M3593 987 c4 -10 7 -151 7 -313 0 -194 3 -293 10 -289 6 4 10 115 10
299 0 263 -2 295 -17 307 -15 12 -16 12 -10 -4z"/><path d="M2874 927 c-2 -7 -3 -62 -2 -123 l3 -109 102 -3 c122 -3 115 -11 111
143 l-3 100 -103 3 c-79 2 -104 0 -108 -11z m186 -69 c-1 -54 -2 -60 -13 -43
-6 11 -16 33 -22 49 -5 16 -20 32 -31 37 -27 10 -64 -15 -64 -42 0 -19 -27
-56 -34 -48 -2 2 -1 28 1 57 l6 52 78 0 79 0 0 -62z m-60 7 c0 -9 -9 -15 -25
-15 -24 0 -32 10 -18 23 12 13 43 7 43 -8z m3 -46 c26 -12 47 -47 47 -79 0
-16 -9 -19 -71 -22 -80 -3 -89 3 -69 53 12 27 44 59 62 59 4 0 18 -5 31 -11z"/><path d="M2957 794 c-4 -4 -7 -20 -7 -36 0 -23 4 -28 26 -28 23 0 25 3 22 32
-3 31 -25 48 -41 32z m20 -36 c-3 -8 -6 -5 -6 6 -1 11 2 17 5 13 3 -3 4 -12 1
-19z"/><path d="M2827 896 c-4 -15 -6 -31 -2 -34 10 -10 16 6 13 35 l-3 28 -8 -29z"/><path d="M3140 870 c0 -13 7 -20 20 -20 13 0 20 7 20 20 0 13 -7 20 -20 20
-13 0 -20 -7 -20 -20z"/><path d="M3200 870 c0 -13 7 -20 20 -20 13 0 20 7 20 20 0 13 -7 20 -20 20
-13 0 -20 -7 -20 -20z"/><path d="M3260 870 c0 -13 7 -20 20 -20 13 0 20 7 20 20 0 13 -7 20 -20 20
-13 0 -20 -7 -20 -20z"/><path d="M2820 825 c0 -14 5 -25 10 -25 6 0 10 11 10 25 0 14 -4 25 -10 25 -5
0 -10 -11 -10 -25z"/><path d="M3238 803 c56 -2 148 -2 205 0 56 1 10 3 -103 3 -113 0 -159 -2 -102
-3z"/><path d="M2821 774 c0 -11 3 -14 6 -6 3 7 2 16 -1 19 -3 4 -6 -2 -5 -13z"/><path d="M3238 743 c56 -2 148 -2 205 0 56 1 10 3 -103 3 -113 0 -159 -2 -102
-3z"/><path d="M3305 690 l-170 -6 203 -2 c133 -1 201 1 197 8 -3 6 -18 9 -33 8 -15
-1 -103 -5 -197 -8z"/><path d="M2831 634 c0 -11 3 -14 6 -6 3 7 2 16 -1 19 -3 4 -6 -2 -5 -13z"/><path d="M2874 637 c-2 -7 -3 -58 -2 -113 l3 -99 105 0 105 0 3 90 c5 141 10
135 -109 135 -73 0 -101 -3 -105 -13z m186 -79 c0 -57 -3 -69 -12 -60 -7 7
-13 29 -14 49 -3 89 -114 81 -114 -9 0 -15 -4 -30 -10 -33 -6 -4 -10 18 -10
59 l0 66 80 0 80 0 0 -72z m-53 6 c8 -20 -8 -48 -30 -52 -19 -4 -39 30 -31 52
8 21 53 21 61 0z m31 -95 c12 -18 9 -19 -58 -19 -38 0 -70 3 -70 7 0 3 6 14
14 22 21 23 98 16 114 -10z"/><path d="M3140 630 c0 -6 72 -10 195 -10 123 0 195 4 195 10 0 6 -72 10 -195
10 -123 0 -195 -4 -195 -10z"/><path d="M3145 570 c4 -6 80 -10 196 -10 119 0 189 4 189 10 0 6 -72 10 -196
10 -127 0 -193 -3 -189 -10z"/><path d="M3357 510 c-23 -27 -31 -30 -83 -30 l-57 0 23 25 c13 14 19 25 14 25
-10 -1 -74 -56 -74 -65 0 -3 34 -5 75 -5 62 0 75 -3 75 -16 0 -13 6 -15 28
-10 15 4 36 8 48 9 11 1 29 8 38 16 13 11 16 11 14 2 -2 -7 5 -18 14 -24 19
-13 68 5 68 24 0 8 -4 8 -15 -1 -12 -10 -15 -10 -15 4 0 9 8 16 20 16 11 0 20
4 20 9 0 5 -20 7 -44 5 -35 -2 -44 0 -39 12 7 19 -11 18 -27 -1 -7 -8 -28 -15
-48 -15 -35 0 -35 0 -17 20 10 11 16 23 13 25 -3 3 -17 -8 -31 -25z m33 -45
c-7 -8 -22 -15 -34 -15 -21 1 -21 1 -2 15 27 21 53 20 36 0z m110 0 c0 -8 -7
-15 -15 -15 -16 0 -20 12 -8 23 11 12 23 8 23 -8z"/><path d="M2823 470 c0 -25 2 -35 4 -22 2 12 2 32 0 45 -2 12 -4 2 -4 -23z"/><path d="M1300 736 c0 -9 7 -16 16 -16 9 0 14 5 12 12 -6 18 -28 21 -28 4z"/><path d="M2670 730 c0 -5 7 -10 15 -10 8 0 15 5 15 10 0 6 -7 10 -15 10 -8 0
-15 -4 -15 -10z"/><path d="M770 270 c0 -5 5 -10 10 -10 6 0 10 5 10 10 0 6 -4 10 -10 10 -5 0
-10 -4 -10 -10z"/><path d="M1990 200 c0 -5 5 -10 10 -10 6 0 10 5 10 10 0 6 -4 10 -10 10 -5 0
-10 -4 -10 -10z"/></g></svg>