<svg xmlns="http://www.w3.org/2000/svg" viewBox="0 0 400 400" fill="none">
  <defs>
    <linearGradient id="shieldGrad" x1="0%" y1="0%" x2="100%" y2="100%">
      <stop offset="0%" style="stop-color:#2ECC71;stop-opacity:1" />
      <stop offset="100%" style="stop-color:#27AE60;stop-opacity:1" />
    </linearGradient>
    <filter id="shadow">
      <feDropShadow dx="0" dy="4" stdDeviation="6" flood-opacity="0.2"/>
    </filter>
  </defs>
  
  <!-- Background -->
  <rect width="400" height="400" fill="#F0F8FF" rx="10"/>
  
  <!-- Main Shield -->
  <path d="M 200 50 L 320 100 Q 330 110 330 130 L 330 250 Q 330 280 310 300 L 200 360 L 90 300 Q 70 280 70 250 L 70 130 Q 70 110 80 100 Z" 
        fill="url(#shieldGrad)" 
        stroke="#1E8449" 
        stroke-width="4"
        filter="url(#shadow)"/>
  
  <!-- Inner Shield Detail -->
  <path d="M 200 80 L 300 120 Q 305 125 305 140 L 305 240 Q 305 260 290 275 L 200 320 L 110 275 Q 95 260 95 240 L 95 140 Q 95 125 100 120 Z" 
        fill="#F8F9FA" 
        opacity="0.3"/>
  
  <!-- Checkmark -->
  <path d="M 160 200 L 185 230 L 245 160" 
        stroke="white" 
        stroke-width="16" 
        stroke-linecap="round" 
        stroke-linejoin="round"
        fill="none"/>
  
  <!-- Lock Icon (top) -->
  <rect x="185" y="110" width="30" height="35" rx="5" fill="white" opacity="0.9"/>
  <path d="M 195 110 Q 195 95 200 95 Q 205 95 205 110" 
        stroke="white" 
        stroke-width="3" 
        fill="none" 
        opacity="0.9"/>
  
  <!-- Security Badge -->
  <circle cx="200" cy="340" r="25" fill="#1E8449" stroke="white" stroke-width="3"/>
  <text x="200" y="350" text-anchor="middle" fill="white" font-size="20" font-weight="bold">✓</text>
  
  <!-- Text Label -->
  <text x="200" y="385" text-anchor="middle" fill="#2C3E50" font-size="14" font-weight="600">Segurança Garantida</text>
</svg>
