<?xml version="1.0" standalone="no"?><!DOCTYPE svg PUBLIC "-//W3C//DTD SVG 20010904//EN" "http://www.w3.org/TR/2001/REC-SVG-20010904/DTD/svg10.dtd"><svg version="1.0" xmlns="http://www.w3.org/2000/svg" width="400.000000pt" height="400.000000pt" viewBox="0 0 400.000000 400.000000" preserveAspectRatio="xMidYMid meet"><g transform="translate(0.000000,400.000000) scale(0.100000,-0.100000)"
fill="#000000" stroke="none"><path d="M1957 3411 c-193 -8 -186 -1 -189 -190 -2 -188 0 -212 25 -238 20
-22 26 -23 208 -23 l188 0 20 26 c19 25 21 40 21 201 0 98 -4 183 -10 193 -10
19 -71 42 -100 38 -8 -1 -82 -4 -163 -7z m227 -43 c13 -18 16 -53 16 -178 0
-214 14 -200 -200 -200 -140 0 -171 3 -184 16 -24 24 -23 339 1 366 14 16 34
18 184 18 162 0 168 -1 183 -22z"/><path d="M1963 3313 c-15 -30 -25 -39 -53 -43 -20 -4 -41 -10 -48 -14 -19 -12
-14 -41 13 -66 20 -19 25 -33 25 -71 0 -26 4 -50 9 -54 5 -3 28 2 51 11 39 16
44 16 77 0 47 -22 63 -9 63 52 0 36 6 52 26 73 34 36 26 55 -26 64 -33 6 -46
14 -66 46 -30 49 -49 49 -71 2z m57 -43 c10 -23 19 -30 41 -30 36 0 43 -13 19
-35 -13 -12 -20 -31 -20 -57 0 -35 -2 -38 -19 -28 -25 13 -68 13 -76 0 -3 -5
-13 -10 -20 -10 -11 0 -13 8 -8 31 4 24 0 36 -21 58 -23 24 -25 29 -11 35 9 3
25 6 36 6 12 0 27 13 37 30 21 37 27 37 42 0z"/><path d="M1538 3345 c-21 -47 31 -75 66 -36 26 29 13 61 -25 61 -22 0 -32 -7
-41 -25z m52 -11 c0 -8 -7 -14 -15 -14 -15 0 -21 21 -9 33 10 9 24 -2 24 -19z"/><path d="M2421 3326 c-10 -12 -6 -26 10 -26 11 0 19 29 10 35 -5 2 -14 -1 -20
-9z"/><path d="M1460 3225 c0 -8 7 -15 15 -15 8 0 15 7 15 15 0 8 -7 15 -15 15 -8 0
-15 -7 -15 -15z"/><path d="M1617 3223 c-17 -17 -2 -23 53 -23 47 0 60 3 60 15 0 11 -13 15 -53
15 -30 0 -57 -3 -60 -7z"/><path d="M2277 3224 c-18 -18 -3 -25 48 -22 30 2 56 8 58 13 2 11 -95 20 -106
9z"/><path d="M1310 3210 c-11 -7 -12 -12 -4 -20 8 -8 14 -7 23 4 14 17 1 28 -19
16z"/><path d="M2585 3210 c-11 -17 5 -32 21 -19 8 6 14 15 14 20 0 12 -27 11 -35
-1z"/><path d="M1184 3086 c-18 -8 -36 -20 -40 -28 -5 -7 -11 -69 -14 -138 l-5 -125
-196 -5 c-142 -4 -200 -9 -212 -18 -26 -22 -40 -79 -35 -145 4 -50 9 -64 32
-84 26 -22 32 -23 215 -23 214 0 201 6 201 -89 0 -93 -5 -91 271 -91 170 0
238 -3 247 -12 7 -7 12 -29 12 -50 0 -21 5 -38 10 -38 6 0 10 14 10 30 0 29
13 40 25 20 8 -13 35 -13 35 0 0 5 -14 25 -31 45 l-31 35 -248 0 c-246 0 -249
0 -264 22 -10 14 -16 44 -16 75 l0 53 204 0 204 0 31 26 c30 25 31 28 31 109
0 74 -3 87 -24 112 l-24 28 -211 3 -211 3 0 110 c0 103 1 111 25 134 l24 25
266 0 c229 0 265 2 265 15 0 13 -35 15 -257 15 -195 -1 -266 -4 -289 -14z
m381 -341 c21 -20 25 -34 25 -85 0 -109 41 -100 -440 -100 -482 0 -440 -10
-440 104 0 113 -28 106 435 106 l396 0 24 -25z"/><path d="M967 2693 c-13 -13 -7 -30 16 -41 l22 -11 -23 0 c-27 -1 -20 -21 8
-21 27 0 32 27 7 45 -18 12 -19 15 -4 15 9 0 17 5 17 10 0 11 -33 14 -43 3z"/><path d="M1033 2686 c9 -7 17 -25 17 -40 0 -16 4 -25 10 -21 6 3 10 17 10 31
0 13 5 24 10 24 6 0 10 5 10 10 0 6 -17 10 -37 10 -34 -1 -36 -2 -20 -14z"/><path d="M1111 2669 c-15 -44 -14 -51 8 -37 15 9 23 9 35 -1 19 -16 20 -8 4
36 -15 42 -33 42 -47 2z"/><path d="M1190 2658 c1 -40 2 -41 15 -24 13 17 15 17 21 3 11 -29 21 -18 20
21 -1 33 -4 37 -28 40 -27 3 -28 1 -28 -40z"/><path d="M1273 2686 c9 -7 17 -25 17 -40 0 -16 4 -25 10 -21 6 3 10 16 10 29
0 12 5 27 12 34 9 9 3 12 -27 12 -35 -1 -38 -2 -22 -14z"/><path d="M2277 3094 c-4 -4 -7 -11 -7 -16 0 -4 119 -8 265 -8 l266 0 25 -25
c24 -24 25 -29 22 -137 l-3 -113 -190 -1 c-238 -2 -218 1 -249 -30 -24 -25
-26 -33 -26 -109 0 -133 -7 -129 252 -135 l213 -5 3 -52 c6 -97 17 -93 -265
-93 l-245 0 -42 -42 c-26 -26 -36 -43 -28 -45 7 -3 19 1 27 7 13 10 16 7 21
-19 11 -52 34 -39 34 19 l0 50 234 0 c129 0 242 3 251 6 26 10 45 59 45 119
l0 55 189 0 c186 0 190 1 218 24 25 21 28 32 31 97 7 147 -12 159 -249 155
-90 -2 -170 -1 -176 1 -9 4 -13 37 -13 119 0 111 -1 114 -29 146 l-29 33 -269
3 c-148 2 -272 0 -276 -4z m981 -340 c19 -13 22 -24 22 -93 0 -46 -5 -82 -12
-89 -9 -9 -117 -12 -425 -12 -475 0 -433 -11 -433 109 0 107 -27 101 435 101
337 0 394 -2 413 -16z"/><path d="M2570 2658 c1 -36 3 -40 13 -27 7 8 20 18 30 22 28 10 17 41 -16 45
-26 3 -27 1 -27 -40z m40 18 c0 -3 -4 -8 -10 -11 -5 -3 -10 -1 -10 4 0 6 5 11
10 11 6 0 10 -2 10 -4z"/><path d="M2640 2661 c0 -23 5 -41 10 -41 6 0 10 7 10 17 0 15 2 14 20 -2 19
-17 19 -17 17 21 -2 34 -5 39 -29 42 -27 3 -28 1 -28 -37z m37 13 c-3 -3 -12
-4 -19 -1 -8 3 -5 6 6 6 11 1 17 -2 13 -5z"/><path d="M2722 2688 c-29 -29 3 -82 36 -61 25 15 22 67 -3 71 -11 1 -26 -3
-33 -10z m42 -16 c8 -13 -11 -35 -23 -28 -16 10 -14 36 3 36 8 0 17 -4 20 -8z"/><path d="M2797 2693 c-24 -23 8 -81 38 -69 21 8 19 28 -2 24 -10 -2 -19 4 -21
15 -2 12 3 17 18 17 12 0 18 5 15 10 -7 11 -38 13 -48 3z"/><path d="M2867 2693 c-4 -3 -7 -19 -7 -35 0 -31 20 -45 48 -33 15 7 13 9 -8
14 -24 7 -24 7 -5 19 l20 11 -20 1 c-18 1 -18 2 3 10 12 5 22 12 22 15 0 7
-45 6 -53 -2z"/><path d="M2934 2689 c-4 -7 4 -20 17 -31 l24 -20 -22 5 c-13 3 -23 1 -23 -4 0
-17 30 -22 46 -8 14 12 14 15 -6 31 -17 14 -19 18 -6 18 9 0 16 5 16 10 0 14
-37 13 -46 -1z"/><path d="M3000 2680 c0 -11 7 -20 15 -20 8 0 15 -5 15 -11 0 -6 -7 -9 -15 -5
-8 3 -15 1 -15 -5 0 -17 29 -22 46 -8 14 12 14 15 -6 31 -17 14 -19 18 -6 18
9 0 16 5 16 10 0 6 -11 10 -25 10 -18 0 -25 -5 -25 -20z"/><path d="M3151 3016 c-8 -9 -7 -18 4 -32 13 -17 14 -17 15 -1 0 9 5 17 10 17
15 0 12 17 -4 23 -8 3 -19 0 -25 -7z"/><path d="M861 2997 c-6 -8 -9 -22 -5 -31 8 -20 11 -20 31 0 14 14 14 17 1 30
-13 13 -16 13 -27 1z"/><path d="M1520 2984 c-11 -12 -10 -18 3 -32 16 -15 18 -15 31 3 11 16 11 21 0
32 -16 17 -19 16 -34 -3z"/><path d="M2667 2973 c-12 -11 -8 -23 8 -23 8 0 15 7 15 15 0 16 -12 20 -23 8z"/><path d="M2467 2953 c-12 -11 -8 -23 8 -23 8 0 15 7 15 15 0 16 -12 20 -23 8z"/><path d="M1961 2878 c-38 -41 -52 -68 -33 -68 5 0 17 9 28 21 17 19 19 19 25
2 4 -10 8 -85 8 -166 1 -114 4 -148 14 -145 9 3 13 50 17 167 5 161 5 163 24
142 23 -26 36 -27 36 -3 -1 15 -63 92 -74 92 -3 0 -23 -19 -45 -42z"/><path d="M3020 2894 c0 -17 22 -14 28 4 2 7 -3 12 -12 12 -9 0 -16 -7 -16 -16z"/><path d="M1363 2885 c-3 -9 -3 -18 0 -21 9 -9 27 6 27 22 0 19 -19 18 -27 -1z"/><path d="M1723 2485 c-3 -9 -3 -18 0 -21 9 -9 27 6 27 22 0 19 -19 18 -27 -1z"/><path d="M2207 2482 c-13 -15 -13 -19 4 -36 16 -16 19 -17 19 -4 0 9 6 18 12
20 10 4 8 9 -3 21 -15 15 -18 15 -32 -1z"/><path d="M1988 2353 l-3 -118 -84 -5 c-75 -5 -86 -9 -107 -33 -23 -27 -24 -33
-24 -213 0 -249 -15 -234 228 -234 l179 0 27 26 26 27 0 187 c0 235 1 233
-122 240 l-83 5 -3 118 c-2 94 -5 117 -17 117 -12 0 -15 -23 -17 -117z m196
-175 c13 -18 16 -54 16 -188 0 -222 12 -210 -198 -210 -217 0 -202 -15 -202
207 0 150 2 179 17 195 14 16 34 18 184 18 162 0 168 -1 183 -22z"/><path d="M1968 2108 c-16 -30 -31 -44 -48 -46 -77 -9 -90 -29 -45 -72 20 -19
25 -33 25 -72 0 -59 16 -69 66 -42 33 18 36 18 65 1 50 -28 59 -23 59 31 0 38
6 55 31 85 37 45 33 65 -18 69 -31 3 -42 10 -66 46 -16 23 -32 42 -37 42 -5 0
-19 -19 -32 -42z m53 -37 c11 -18 28 -31 49 -36 l32 -7 -21 -22 c-14 -15 -21
-36 -21 -64 l0 -41 -29 17 c-28 15 -32 15 -66 -1 l-37 -18 6 37 c6 31 3 41
-19 64 l-26 28 36 6 c26 5 41 16 53 37 9 16 19 29 22 29 3 0 12 -13 21 -29z"/><path d="M816 2333 c-3 -3 -6 -21 -6 -38 0 -43 -11 -51 -32 -23 -13 18 -20 20
-29 11 -9 -9 -4 -22 25 -58 21 -25 41 -45 45 -45 16 0 92 90 85 101 -4 7 -12
5 -23 -5 -28 -25 -41 -19 -41 18 0 34 -11 52 -24 39z"/><path d="M3168 2334 c-4 -3 -4 -21 -1 -39 6 -40 -8 -51 -32 -25 -22 24 -35 26
-35 4 0 -19 61 -94 76 -94 14 0 84 84 84 101 0 8 -6 7 -18 -4 -28 -26 -41 -20
-44 20 -3 34 -17 51 -30 37z"/><path d="M655 2126 c-30 -30 -38 -83 -33 -225 3 -109 4 -114 31 -137 27 -23
34 -24 172 -24 138 0 145 1 172 24 l28 24 3 156 c3 155 3 156 -22 181 -25 25
-28 25 -176 25 -146 0 -152 -1 -175 -24z m328 -24 c22 -24 20 -308 -2 -322 -8
-4 -80 -7 -159 -6 -128 2 -147 5 -158 21 -10 14 -14 56 -14 154 0 179 -9 171
175 171 123 0 144 -2 158 -18z"/><path d="M867 2038 c-8 -18 -21 -39 -30 -46 -13 -11 -20 -8 -44 18 l-29 31
-33 -35 -34 -35 43 -48 c73 -81 67 -80 130 -20 30 30 63 57 73 60 13 5 17 18
17 57 l0 50 -40 0 c-35 0 -41 -4 -53 -32z m7 -89 c-27 -27 -54 -49 -61 -49
-17 0 -76 78 -68 91 5 7 19 -1 40 -21 l34 -32 48 45 c66 63 73 32 7 -34z"/><path d="M3007 2125 l-27 -26 0 -155 c0 -151 1 -156 25 -179 23 -24 29 -25
159 -25 74 0 146 4 160 10 48 18 58 57 54 210 -3 131 -4 140 -27 164 -24 26
-27 26 -170 26 -143 0 -147 -1 -174 -25z m327 -27 c10 -17 14 -57 12 -161 -1
-175 7 -167 -170 -167 -174 0 -166 -9 -166 180 0 100 4 150 12 158 8 8 57 12
155 12 137 0 143 -1 157 -22z"/><path d="M3143 2053 c-35 -7 -83 -68 -83 -106 0 -81 84 -138 155 -104 57 27
75 70 61 140 -5 25 -3 43 5 53 9 11 5 13 -27 12 -22 -1 -50 1 -64 4 -14 3 -35
4 -47 1z m55 -31 c9 -6 7 -14 -8 -30 -12 -12 -27 -22 -35 -22 -21 0 -19 -36 2
-44 12 -5 26 3 45 26 23 28 29 31 38 18 27 -40 -13 -110 -63 -110 -32 0 -73
33 -81 66 -16 63 52 127 102 96z"/><path d="M1112 2013 l-41 -48 42 -42 c55 -57 90 -61 47 -6 -11 14 -20 30 -20
34 0 5 32 9 70 9 40 0 70 4 70 10 0 6 -26 10 -57 11 -32 0 -66 4 -76 8 -16 6
-16 9 8 31 28 26 32 40 11 40 -7 0 -32 -21 -54 -47z"/><path d="M1627 2054 c-3 -4 2 -18 13 -32 26 -33 18 -42 -40 -42 -27 0 -52 -4
-55 -10 -4 -6 15 -10 49 -10 48 0 56 -3 56 -19 0 -10 -7 -24 -15 -31 -18 -15
-20 -30 -4 -30 13 0 88 80 89 95 0 11 -71 85 -81 85 -3 0 -9 -3 -12 -6z"/><path d="M2320 2015 l-44 -45 39 -42 c22 -24 41 -44 42 -47 1 -2 9 -1 18 3 14
5 12 11 -11 41 l-26 35 65 0 c36 0 69 5 72 10 4 6 -15 10 -49 10 -80 0 -91 6
-66 37 21 27 25 43 12 43 -4 0 -28 -20 -52 -45z"/><path d="M2830 2046 c0 -7 7 -19 15 -26 35 -29 17 -39 -77 -42 -58 -2 -91 -7
-88 -13 3 -6 41 -9 93 -7 81 3 87 2 87 -16 0 -11 -7 -25 -15 -32 -8 -7 -15
-20 -15 -29 0 -10 19 3 51 36 l52 51 -39 46 c-39 45 -64 58 -64 32z"/><path d="M1355 1970 c-9 -15 16 -22 70 -18 28 2 50 8 53 16 5 15 -114 17 -123
2z"/><path d="M2545 1970 c-4 -6 8 -10 29 -10 20 0 36 5 36 10 0 6 -13 10 -29 10
-17 0 -33 -4 -36 -10z"/><path d="M2663 1730 c-17 -26 5 -44 31 -24 11 7 18 15 15 17 -2 1 -11 8 -19
14 -13 10 -18 8 -27 -7z"/><path d="M1958 1649 c-21 -27 -38 -54 -38 -60 0 -15 16 -10 36 12 17 19 19 19
26 2 10 -26 7 -202 -4 -236 -16 -43 -54 -67 -109 -67 -39 0 -49 -3 -49 -16 0
-14 9 -16 57 -12 49 4 60 9 90 41 l33 37 17 -27 c33 -51 53 -53 441 -53 414 0
396 4 390 -90 l-3 -52 -208 -1 -209 -2 -24 -28 c-21 -25 -24 -38 -24 -111 0
-75 2 -85 25 -106 25 -24 27 -24 230 -21 l204 3 7 -27 c10 -40 -2 -108 -23
-123 -14 -10 -77 -13 -281 -11 -145 0 -266 -2 -270 -5 -21 -22 33 -27 281 -24
l267 3 27 27 c23 23 28 38 31 94 l4 66 182 -3 c99 -2 191 0 204 5 35 12 52 56
52 136 0 66 -2 74 -30 102 l-30 30 -188 -3 -187 -3 -6 67 c-9 109 20 101 -420
107 l-381 5 -29 33 c-29 32 -29 33 -29 159 0 125 0 126 20 108 11 -10 26 -15
35 -11 14 5 14 9 3 24 -46 63 -63 82 -72 82 -6 0 -28 -23 -48 -51z m1304 -561
c18 -14 21 -28 19 -110 -2 -94 26 -88 -436 -88 -354 0 -406 2 -419 16 -12 11
-16 35 -16 89 0 54 4 78 16 89 13 14 65 16 418 16 306 0 406 -3 418 -12z"/><path d="M2586 1015 c-3 -9 -6 -28 -6 -41 0 -21 4 -25 26 -22 35 4 53 31 38
56 -15 23 -50 27 -58 7z m42 -28 c2 -10 -3 -17 -12 -17 -10 0 -16 9 -16 21 0
24 23 21 28 -4z"/><path d="M2672 1021 c-8 -5 -12 -21 -10 -37 2 -23 9 -30 31 -32 15 -2 27 1 27
7 0 6 -10 11 -22 11 -22 1 -22 1 -3 12 19 11 19 11 0 19 -19 7 -18 8 3 8 12 1
22 6 22 11 0 12 -30 13 -48 1z"/><path d="M2742 1018 c-25 -25 -6 -68 30 -68 10 0 18 5 18 10 0 6 -9 10 -20 10
-13 0 -20 7 -20 20 0 14 7 20 21 20 11 0 17 5 14 10 -8 14 -28 13 -43 -2z"/><path d="M2813 990 c0 -25 2 -35 4 -22 2 12 2 32 0 45 -2 12 -4 2 -4 -23z"/><path d="M2847 1023 c-14 -13 -6 -34 16 -43 l22 -9 -22 0 c-31 -1 -29 -21 1
-21 35 0 43 20 16 42 -18 14 -19 18 -6 18 10 0 14 5 11 10 -7 11 -28 13 -38 3z"/><path d="M2910 991 c0 -23 5 -41 10 -41 6 0 10 15 10 34 0 19 -4 38 -10 41 -6
4 -10 -10 -10 -34z"/><path d="M2950 1015 c-24 -29 8 -75 44 -62 30 12 14 77 -20 77 -6 0 -17 -7
-24 -15z m40 -25 c0 -11 -7 -20 -15 -20 -8 0 -15 9 -15 20 0 11 7 20 15 20 8
0 15 -9 15 -20z"/><path d="M3028 1018 c-2 -7 -2 -26 2 -43 5 -28 6 -29 17 -10 11 18 12 19 18 3
4 -10 13 -18 21 -18 16 0 20 65 4 75 -6 3 -10 -4 -10 -16 l0 -22 -24 22 c-17
16 -25 18 -28 9z"/><path d="M782 1646 c-23 -25 -42 -50 -42 -56 0 -19 29 -10 41 12 12 22 12 22
20 3 4 -11 8 -81 8 -156 1 -123 3 -138 21 -154 24 -21 101 -27 107 -7 3 8 -7
12 -30 12 -59 0 -65 17 -69 177 l-3 141 28 -20 c53 -38 48 8 -6 60 l-34 33
-41 -45z"/><path d="M3138 1644 c-21 -26 -38 -51 -38 -55 0 -17 25 -9 39 14 15 22 15 22
21 -10 11 -50 3 -262 -10 -278 -6 -8 -33 -15 -58 -17 -60 -4 -56 -23 4 -22 35
0 51 6 71 27 29 28 27 10 33 295 l0 23 22 -21 c52 -48 52 2 0 53 -21 20 -40
37 -42 37 -3 0 -22 -21 -42 -46z"/><path d="M1631 1639 c-21 -26 -30 -44 -24 -50 6 -6 14 -4 23 6 23 27 30 16 30
-48 0 -89 -11 -97 -127 -97 -95 0 -127 -6 -117 -21 3 -5 48 -9 100 -9 143 0
174 25 174 137 0 56 0 56 21 37 17 -15 22 -16 29 -4 7 11 -1 25 -27 52 -21 21
-40 38 -43 38 -3 0 -20 -19 -39 -41z"/><path d="M2286 1638 c-23 -27 -33 -45 -27 -51 7 -7 15 -6 24 1 20 17 27 5 27
-45 0 -56 21 -97 58 -112 38 -16 214 -11 220 7 3 9 -22 12 -101 12 -102 0
-106 1 -126 26 -15 20 -21 41 -21 80 0 58 4 63 32 38 16 -16 18 -15 24 0 5 12
-4 28 -27 52 -18 19 -36 34 -40 34 -4 0 -24 -19 -43 -42z"/><path d="M1115 1661 c-3 -5 -1 -12 5 -16 12 -7 30 2 30 16 0 12 -27 12 -35 0z"/><path d="M1345 1640 c-7 -12 2 -30 16 -30 5 0 9 9 9 20 0 21 -15 27 -25 10z"/><path d="M2916 1544 c-4 -9 -1 -23 5 -30 10 -12 14 -11 24 3 10 13 10 22 3 30
-14 17 -25 16 -32 -3z"/><path d="M1020 1435 c0 -9 5 -15 11 -13 6 2 11 8 11 13 0 5 -5 11 -11 13 -6 2
-11 -4 -11 -13z"/><path d="M1781 1416 c-17 -20 8 -39 31 -22 13 10 15 15 6 24 -15 15 -23 15
-37 -2z"/><path d="M2195 1399 c-10 -15 1 -23 20 -15 9 3 13 10 10 16 -8 13 -22 13 -30
-1z"/><path d="M1020 1284 c0 -17 22 -14 28 4 2 7 -3 12 -12 12 -9 0 -16 -7 -16 -16z"/><path d="M1152 1277 c-17 -18 -22 -36 -22 -80 0 -31 -5 -59 -11 -63 -6 -4 -83
-6 -169 -5 -87 1 -175 -1 -195 -5 -54 -10 -70 -41 -70 -140 0 -127 -5 -124
231 -124 221 0 214 3 214 -89 0 -95 20 -101 328 -101 223 0 289 6 270 25 -3 4
-127 8 -274 10 -265 3 -268 3 -286 26 -14 16 -18 35 -16 73 l3 51 212 3 212 2
20 27 c30 37 31 179 2 214 -19 24 -22 24 -224 26 -113 0 -211 4 -216 8 -14 8
-14 75 -1 109 l10 26 274 0 c151 0 281 3 290 6 49 19 -11 24 -272 24 l-289 0
-21 -23z m422 -199 c10 -14 16 -44 16 -83 0 -39 -6 -69 -16 -83 l-15 -22 -414
0 c-477 0 -435 -10 -435 106 0 112 -34 104 441 104 l408 0 15 -22z"/><path d="M910 989 c0 -38 1 -40 28 -37 47 5 39 78 -9 78 -16 0 -19 -8 -19 -41z
m40 1 c0 -11 -7 -20 -15 -20 -15 0 -21 21 -8 33 12 13 23 7 23 -13z"/><path d="M984 1005 c-9 -36 2 -55 31 -55 31 0 34 20 3 21 -17 1 -19 2 -5 6 20
5 22 19 5 26 -8 3 -6 6 5 6 27 1 20 21 -8 21 -18 0 -26 -7 -31 -25z"/><path d="M1058 1005 c-8 -19 -8 -28 2 -40 14 -17 50 -21 50 -5 0 6 -9 10 -20
10 -26 0 -26 30 0 37 11 3 17 9 14 14 -10 17 -35 9 -46 -16z"/><path d="M1124 1015 c-3 -8 -1 -27 4 -42 10 -27 10 -26 11 15 1 43 -5 54 -15
27z"/><path d="M1163 1014 c-4 -11 1 -22 12 -30 17 -13 17 -14 2 -14 -9 0 -17 -4
-17 -10 0 -5 9 -10 20 -10 29 0 38 30 15 46 -17 13 -17 14 -1 14 9 0 14 5 11
10 -10 16 -35 12 -42 -6z"/><path d="M1233 990 c0 -25 2 -35 4 -22 2 12 2 32 0 45 -2 12 -4 2 -4 -23z"/><path d="M1270 1016 c-20 -26 -8 -61 22 -64 22 -3 29 2 34 22 11 44 -29 74
-56 42z m40 -26 c0 -11 -7 -20 -15 -20 -8 0 -15 9 -15 20 0 11 7 20 15 20 8 0
15 -9 15 -20z"/><path d="M1347 1024 c-11 -11 -8 -74 3 -74 6 0 10 10 10 23 0 22 0 22 20 -3
25 -33 45 -16 35 31 -7 29 -9 31 -20 16 -10 -14 -13 -14 -26 -1 -9 8 -18 11
-22 8z"/><path d="M2945 1291 c-6 -11 9 -23 19 -14 9 9 7 23 -3 23 -6 0 -12 -4 -16 -9z"/><path d="M1990 1096 c0 -39 -18 -57 -32 -32 -11 20 -38 21 -38 1 0 -21 59 -85
79 -84 19 1 97 86 87 96 -4 4 -20 -1 -36 -11 l-30 -17 0 40 c0 30 -4 41 -15
41 -10 0 -15 -10 -15 -34z"/><path d="M1909 942 c-77 -2 -89 -5 -110 -28 -21 -23 -25 -38 -29 -127 -3 -56
-3 -140 0 -185 7 -123 6 -122 232 -122 242 0 228 -14 228 229 0 173 -1 181
-22 205 -21 22 -32 25 -118 28 -52 1 -134 2 -181 0z m279 -50 c18 -24 17 -331
-2 -358 -13 -17 -29 -19 -176 -22 -225 -4 -210 -18 -210 202 0 129 3 176 13
184 16 14 91 18 242 14 95 -3 123 -7 133 -20z"/><path d="M1961 832 c-17 -33 -27 -40 -63 -48 -53 -11 -61 -38 -23 -74 20 -19
25 -33 25 -72 0 -57 14 -67 60 -43 31 16 35 16 71 0 54 -25 72 -15 64 35 -6
35 -3 45 25 80 17 22 30 45 28 52 -3 7 -24 17 -49 23 -36 9 -48 18 -64 48 -26
48 -49 47 -74 -1z m61 -41 c12 -21 27 -32 53 -37 l36 -6 -25 -27 c-18 -19 -26
-38 -26 -64 l0 -38 -30 16 c-27 14 -33 14 -60 0 -40 -21 -42 -20 -34 21 5 30
2 40 -21 64 l-27 29 36 6 c27 5 41 15 52 36 18 36 25 36 46 0z"/></g></svg>